<?xml version="1.0" encoding="UTF-8"?>
<!-- Created by Svg.la -->
<svg version="1.1" xmlns="http://www.w3.org/2000/svg" width="600" height="600">
<path d="M0 0 C198 0 396 0 600 0 C600 198 600 396 600 600 C402 600 204 600 0 600 C0 402 0 204 0 0 Z " fill="#FEFEFE" transform="translate(0,0)"/>
<path d="M0 0 C0 3.3 0 6.6 0 10 C13.53 10 27.06 10 41 10 C41 10.66 41 11.32 41 12 C42.033 11.26 42.033 11.26 43.087 10.505 C46.595 8.693 48.691 8.729 52.613 8.926 C54.484 9.008 54.484 9.008 56.393 9.092 C58.333 9.201 58.333 9.201 60.312 9.312 C61.625 9.374 62.938 9.435 64.291 9.498 C67.528 9.651 70.764 9.819 74 10 C74.99 11.98 74.99 11.98 76 14 C76.45 13.639 76.9 13.278 77.363 12.906 C83.171 8.717 87.959 8.235 95 9 C95.998 9.259 95.998 9.259 97.016 9.523 C99.47 10.195 99.47 10.195 104 10 C104 20.56 104 31.12 104 42 C88.522 46.643 88.522 46.643 81.734 43.477 C80.832 42.989 79.93 42.502 79 42 C78.887 43.109 78.887 43.109 78.772 44.24 C75.838 72.752 71.959 99.3 53 122 C52.491 122.655 51.982 123.31 51.457 123.984 C34.493 144.928 4.583 156.856 -19.812 166.062 C-20.759 166.42 -21.706 166.778 -22.681 167.146 C-28.6 169.308 -34.532 170.966 -40.671 172.385 C-42.944 172.776 -42.944 172.776 -44 174 C-50.545 174.388 -55.84 172.332 -61.938 170.188 C-63.086 169.784 -64.235 169.381 -65.418 168.966 C-93.697 158.783 -119.118 143.639 -141 123 C-141.697 122.355 -142.395 121.711 -143.113 121.047 C-157.379 107.419 -168.155 88.647 -171 69 C-150.44 66.625 -150.44 66.625 -145.125 70.295 C-142.187 73.759 -140.561 77.872 -138.875 82.051 C-130.691 100.291 -107.602 113.435 -90 121 C-64.129 130.734 -36.772 131.335 -11.309 119.984 C8.124 110.669 22.266 95.83 29.879 75.633 C32.221 68.042 33.329 60.869 33.625 52.938 C33.749 49.988 33.873 47.039 34 44 C20.635 44.495 20.635 44.495 7 45 C8.98 49.95 8.98 49.95 11 55 C11.37 58.282 11.578 61.121 11.5 64.375 C11.487 65.199 11.474 66.024 11.461 66.873 C11.015 80.391 5.362 91.686 -4 101.375 C-5.314 102.604 -6.646 103.815 -8 105 C-8.518 105.459 -9.036 105.918 -9.57 106.391 C-20.475 115.048 -34.372 118.512 -48 118 C-48.425 114.903 -48.587 112.083 -48 109 C-44.938 106.562 -44.938 106.562 -43.008 105.414 C-35.656 100.236 -31.643 90.549 -30 82 C-28.766 69.79 -29.741 59.546 -37.5 49.727 C-38.243 48.872 -38.243 48.872 -39 48 C-39.723 47.163 -39.723 47.163 -40.461 46.309 C-42.927 44.212 -45.865 44.406 -49 44 C-49.33 43.34 -49.66 42.68 -50 42 C-52.314 41.269 -54.648 40.599 -57 40 C-57.33 41.32 -57.66 42.64 -58 44 C-60.31 44 -62.62 44 -65 44 C-65 32.78 -65 21.56 -65 10 C-56.333 10 -47.667 10 -39 10 C-38.34 9.67 -37.68 9.34 -37 9 C-34.747 8.984 -32.494 9.036 -30.242 9.121 C-29.579 9.145 -28.916 9.168 -28.233 9.193 C-26.113 9.269 -23.994 9.353 -21.875 9.438 C-20.439 9.491 -19.003 9.543 -17.566 9.596 C-14.044 9.725 -10.522 9.861 -7 10 C-7 7.03 -7 4.06 -7 1 C-3 0 -3 0 0 0 Z " fill="#01326B" transform="translate(348,274)"/>
<path d="M0 0 C0.654 0.234 1.307 0.467 1.981 0.708 C4.099 1.473 6.208 2.258 8.316 3.047 C9.042 3.314 9.768 3.582 10.516 3.857 C24.401 8.986 37.753 14.935 50.879 21.797 C51.978 22.369 51.978 22.369 53.099 22.953 C78.398 36.304 96.521 55.227 105.129 82.734 C107.276 89.977 107.879 94.845 107.879 102.797 C68.609 102.797 29.339 102.797 -11.121 102.797 C-11.121 87.287 -11.121 71.777 -11.121 55.797 C4.224 55.302 4.224 55.302 19.879 54.797 C19.879 53.807 19.879 52.817 19.879 51.797 C17.547 51.001 15.213 50.21 12.879 49.422 C12.231 49.2 11.582 48.978 10.914 48.75 C-14.002 40.362 -42.304 43.951 -65.938 55.117 C-77.324 60.77 -77.324 60.77 -86.973 68.82 C-92.301 74.642 -96.035 77.028 -104.16 77.492 C-111.164 77.598 -118.137 77.313 -125.121 76.797 C-126.121 73.797 -126.121 73.797 -125.109 71.555 C-117.354 59.371 -107.612 49.499 -96.121 40.797 C-95.587 40.383 -95.053 39.968 -94.503 39.542 C-83.935 31.354 -72.723 24.418 -61.121 17.797 C-60.386 17.376 -59.651 16.956 -58.894 16.522 C-47.731 10.205 -36.149 5.231 -24.121 0.797 C-22.976 0.356 -22.976 0.356 -21.809 -0.095 C-21.056 -0.37 -20.303 -0.646 -19.527 -0.93 C-18.871 -1.175 -18.214 -1.421 -17.537 -1.674 C-11.178 -3.066 -6.046 -2.182 0 0 Z " fill="#72D12A" transform="translate(312.12109375,156.203125)"/>
<path d="M0 0 C0 3.3 0 6.6 0 10 C11.22 10 22.44 10 34 10 C34 21.22 34 32.44 34 44 C20.635 44.495 20.635 44.495 7 45 C8.32 48.3 9.64 51.6 11 55 C11.37 58.282 11.578 61.121 11.5 64.375 C11.487 65.199 11.474 66.024 11.461 66.873 C11.015 80.391 5.362 91.686 -4 101.375 C-5.314 102.604 -6.646 103.815 -8 105 C-8.777 105.688 -8.777 105.688 -9.57 106.391 C-20.475 115.048 -34.372 118.512 -48 118 C-48.425 114.903 -48.587 112.083 -48 109 C-44.938 106.562 -44.938 106.562 -43.008 105.414 C-35.656 100.236 -31.643 90.549 -30 82 C-28.766 69.79 -29.741 59.546 -37.5 49.727 C-37.995 49.157 -38.49 48.587 -39 48 C-39.482 47.442 -39.964 46.884 -40.461 46.309 C-42.927 44.212 -45.865 44.406 -49 44 C-49.33 43.34 -49.66 42.68 -50 42 C-52.314 41.269 -54.648 40.599 -57 40 C-57.33 41.32 -57.66 42.64 -58 44 C-60.31 44 -62.62 44 -65 44 C-65 32.78 -65 21.56 -65 10 C-56.333 10 -47.667 10 -39 10 C-38.34 9.67 -37.68 9.34 -37 9 C-34.747 8.984 -32.494 9.036 -30.242 9.121 C-29.579 9.145 -28.916 9.168 -28.233 9.193 C-26.113 9.269 -23.994 9.353 -21.875 9.438 C-20.439 9.491 -19.003 9.543 -17.566 9.596 C-14.044 9.725 -10.522 9.861 -7 10 C-7 7.03 -7 4.06 -7 1 C-3 0 -3 0 0 0 Z " fill="#093A74" transform="translate(348,274)"/>
<path d="M0 0 C13.2 0 26.4 0 40 0 C40.495 2.475 40.495 2.475 41 5 C42.32 4.67 43.64 4.34 45 4 C48.473 14.42 46.735 28.334 42 38 C38.051 45.398 33.306 51.479 27 57 C26.223 57.688 26.223 57.688 25.43 58.391 C14.525 67.048 0.628 70.512 -13 70 C-13.425 66.903 -13.587 64.083 -13 61 C-9.938 58.562 -9.938 58.562 -8.008 57.414 C-0.656 52.236 3.357 42.549 5 34 C6.032 23.793 5.689 14.061 0.25 5.125 C-0.163 4.424 -0.575 3.723 -1 3 C-0.67 2.01 -0.34 1.02 0 0 Z " fill="#01326B" transform="translate(313,322)"/>
<path d="M0 0 C26.506 0 26.506 0 32.812 5.613 C34.394 7.328 35.704 9.063 37 11 C37.928 12.33 37.928 12.33 38.875 13.688 C41.018 19.996 41.212 27.129 38.5 33.312 C34.845 39.543 29.598 43.361 23 46 C15.41 46 7.82 46 0 46 C0 30.82 0 15.64 0 0 Z " fill="#184476" transform="translate(179,272)"/>
<path d="M0 0 C2.455 0.671 2.455 0.671 6.984 0.477 C6.984 11.037 6.984 21.597 6.984 32.477 C-8.271 37.053 -8.271 37.053 -15.578 33.977 C-16.382 33.482 -17.187 32.987 -18.016 32.477 C-18.346 36.437 -18.676 40.397 -19.016 44.477 C-19.346 44.477 -19.676 44.477 -20.016 44.477 C-20.346 40.847 -20.676 37.217 -21.016 33.477 C-23.46 33.507 -23.46 33.507 -25.953 33.539 C-27.641 33.56 -29.33 33.549 -31.016 33.477 C-32.737 31.755 -32.186 29.434 -32.227 27.086 C-32.255 25.984 -32.283 24.882 -32.312 23.746 C-32.364 21.416 -32.409 19.085 -32.445 16.754 C-32.476 15.647 -32.507 14.539 -32.539 13.398 C-32.559 12.384 -32.579 11.369 -32.599 10.323 C-33.217 6.099 -35.034 3.458 -38.016 0.477 C-33.066 0.477 -28.116 0.477 -23.016 0.477 C-22.356 1.797 -21.696 3.117 -21.016 4.477 C-20.566 4.116 -20.116 3.755 -19.652 3.383 C-13.527 -1.036 -7.36 -1.911 0 0 Z " fill="#093A6F" transform="translate(445.015625,283.5234375)"/>
<path d="M0 0 C3.855 1.997 5.598 3.397 8 7 C8.227 9.911 8.227 9.911 8.195 13.418 C8.189 14.672 8.182 15.925 8.176 17.217 C8.159 18.527 8.142 19.837 8.125 21.188 C8.115 22.523 8.106 23.858 8.098 25.193 C8.074 28.462 8.041 31.731 8 35 C5.69 35 3.38 35 1 35 C0.97 33.88 0.97 33.88 0.94 32.737 C0.845 29.366 0.735 25.996 0.625 22.625 C0.594 21.449 0.563 20.274 0.531 19.062 C0.473 17.38 0.473 17.38 0.414 15.664 C0.383 14.627 0.351 13.59 0.319 12.522 C0.24 9.832 0.24 9.832 -2 8 C-4.106 7.681 -4.106 7.681 -6.438 7.75 C-7.22 7.745 -8.002 7.74 -8.809 7.734 C-11.29 7.868 -11.29 7.868 -14 10 C-14.51 12.612 -14.51 12.612 -14.512 15.664 C-14.547 16.786 -14.583 17.907 -14.619 19.062 C-14.642 20.238 -14.664 21.414 -14.688 22.625 C-14.722 23.808 -14.756 24.992 -14.791 26.211 C-14.874 29.141 -14.943 32.07 -15 35 C-17.31 35 -19.62 35 -22 35 C-22.33 34.34 -22.66 33.68 -23 33 C-25.314 32.269 -27.648 31.599 -30 31 C-30.33 32.32 -30.66 33.64 -31 35 C-33.31 35 -35.62 35 -38 35 C-38 23.78 -38 12.56 -38 1 C-29.333 1 -20.667 1 -12 1 C-8.292 -0.854 -4.046 -0.459 0 0 Z " fill="#01326B" transform="translate(321,283)"/>
<path d="M0 0 C7.92 0 15.84 0 24 0 C24 11.22 24 22.44 24 34 C16.41 34 8.82 34 1 34 C1 32.35 1 30.7 1 29 C-0.609 29.124 -0.609 29.124 -2.25 29.25 C-6 29 -6 29 -8.219 27.594 C-10.937 23.636 -10.43 19.928 -10.25 15.25 C-10.232 14.362 -10.214 13.474 -10.195 12.559 C-10.148 10.372 -10.077 8.186 -10 6 C-6.7 6 -3.4 6 0 6 C0 4.02 0 2.04 0 0 Z " fill="#6E83B4" transform="translate(358,284)"/>
<path d="M0 0 C19 0 19 0 27 4 C30.074 7.381 30.915 9.338 31.5 13.875 C31.216 18.507 29.858 22.33 27 26 C21.123 31.03 14.345 30.334 7 30 C7 35.28 7 40.56 7 46 C4.69 46 2.38 46 0 46 C0 30.82 0 15.64 0 0 Z " fill="#164173" transform="translate(244,272)"/>
<path d="M0 0 C14.419 0 14.419 0 20.312 4.938 C23.868 9.284 24.497 12.867 24.383 18.395 C23.76 22.632 21.91 25.889 19 29 C14 32 14 32 0 32 C0 21.44 0 10.88 0 0 Z " fill="#F9FAFC" transform="translate(187,279)"/>
<path d="M0 0 C3.7 1.853 5.716 4.574 8 8 C8.496 12.38 8.255 14.533 6.125 18.438 C5.424 19.283 4.722 20.129 4 21 C3.34 21 2.68 21 2 21 C2.804 21.804 3.609 22.609 4.438 23.438 C8.006 27.006 8.212 27.589 8.375 32.688 C8.319 39.475 8.319 39.475 5.812 42.625 C1.092 46.611 -2.707 47.456 -8.785 47.324 C-12.236 46.819 -14.363 45.198 -17 43 C-17.619 42.505 -18.238 42.01 -18.875 41.5 C-20 40 -20 40 -20 36 C-17.03 35.505 -17.03 35.505 -14 35 C-13.691 35.66 -13.381 36.32 -13.062 37 C-10.588 39.399 -9.786 39.321 -6.438 39.375 C-2.771 39.362 -2.771 39.362 0 37 C0.243 34.789 0.243 34.789 0.125 32.375 C0.084 30.931 0.042 29.488 0 28 C-4.29 27.34 -8.58 26.68 -13 26 C-13 23.69 -13 21.38 -13 19 C-11.952 18.927 -11.952 18.927 -10.883 18.852 C-9.973 18.777 -9.063 18.702 -8.125 18.625 C-6.768 18.521 -6.768 18.521 -5.383 18.414 C-2.821 18.204 -2.821 18.204 -1 16 C-0.583 12.5 -0.583 12.5 -1 9 C-4.263 6.825 -5.234 6.718 -9 7 C-9.99 7.33 -10.98 7.66 -12 8 C-12.33 8.99 -12.66 9.98 -13 11 C-14.98 10.34 -16.96 9.68 -19 9 C-16.091 -0.521 -8.958 -1.43 0 0 Z " fill="#09376D" transform="translate(162,272)"/>
<path d="M0 0 C5.28 0 10.56 0 16 0 C16 10.56 16 21.12 16 32 C13.36 31.34 10.72 30.68 8 30 C7.67 31.32 7.34 32.64 7 34 C4.69 34 2.38 34 0 34 C0 22.78 0 11.56 0 0 Z " fill="#4A6598" transform="translate(283,284)"/>
<path d="M0 0 C0.753 -0.019 1.506 -0.039 2.281 -0.059 C5.387 0.636 6.5 1.995 8.5 4.438 C8.97 6.987 8.97 6.987 8.926 9.824 C8.917 10.845 8.909 11.865 8.9 12.916 C8.857 14.504 8.857 14.504 8.812 16.125 C8.803 17.196 8.793 18.266 8.783 19.369 C8.668 27.27 8.668 27.27 7.5 28.438 C5.15 28.673 2.794 28.851 0.438 29 C-0.853 29.084 -2.143 29.168 -3.473 29.254 C-4.472 29.314 -5.471 29.375 -6.5 29.438 C-6.5 29.767 -6.5 30.098 -6.5 30.438 C-8.81 30.767 -11.12 31.098 -13.5 31.438 C-13.83 35.397 -14.16 39.358 -14.5 43.438 C-14.83 43.438 -15.16 43.438 -15.5 43.438 C-15.5 38.488 -15.5 33.538 -15.5 28.438 C-13.19 28.438 -10.88 28.438 -8.5 28.438 C-8.531 27.325 -8.531 27.325 -8.563 26.19 C-8.647 22.835 -8.699 19.481 -8.75 16.125 C-8.8 14.374 -8.8 14.374 -8.852 12.588 C-8.864 11.47 -8.877 10.351 -8.891 9.199 C-8.912 8.168 -8.933 7.136 -8.954 6.073 C-8.5 3.438 -8.5 3.438 -6.614 1.604 C-4.222 0.284 -2.72 0.005 0 0 Z " fill="#18437B" transform="translate(397.5,289.5625)"/>
<path d="M0 0 C2.64 0 5.28 0 8 0 C8 11.22 8 22.44 8 34 C5.69 34 3.38 34 1 34 C1 32.35 1 30.7 1 29 C-0.609 29.124 -0.609 29.124 -2.25 29.25 C-6 29 -6 29 -8.219 27.594 C-10.937 23.636 -10.43 19.928 -10.25 15.25 C-10.232 14.362 -10.214 13.474 -10.195 12.559 C-10.148 10.372 -10.077 8.186 -10 6 C-6.7 6 -3.4 6 0 6 C0 4.02 0 2.04 0 0 Z " fill="#7487B6" transform="translate(358,284)"/>
<path d="M0 0 C0 3.3 0 6.6 0 10 C3.3 10 6.6 10 10 10 C10 11.98 10 13.96 10 16 C6.7 16 3.4 16 0 16 C0.087 19.106 0.194 22.208 0.312 25.312 C0.335 26.194 0.358 27.075 0.381 27.982 C0.416 28.83 0.452 29.678 0.488 30.551 C0.514 31.331 0.541 32.111 0.568 32.915 C1.109 35.525 1.876 36.418 4 38 C7.61 38.73 7.61 38.73 11 39 C11 40.65 11 42.3 11 44 C8.939 44.136 6.876 44.232 4.812 44.312 C3.664 44.371 2.515 44.429 1.332 44.488 C-2 44 -2 44 -4.906 42.219 C-8.077 37.344 -7.538 32.865 -7.312 27.188 C-7.29 26.113 -7.267 25.039 -7.244 23.932 C-7.185 21.286 -7.103 18.644 -7 16 C-8.98 16 -10.96 16 -13 16 C-13 14.02 -13 12.04 -13 10 C-11.02 10 -9.04 10 -7 10 C-7 7.03 -7 4.06 -7 1 C-3 0 -3 0 0 0 Z " fill="#02326B" transform="translate(348,274)"/>
<path d="M0 0 C2.439 -0.135 4.871 -0.234 7.312 -0.312 C8.348 -0.375 8.348 -0.375 9.404 -0.439 C11.426 -0.488 11.426 -0.488 15 0 C16.98 2.52 16.98 2.52 18 5 C17.526 5.598 17.051 6.196 16.562 6.812 C13.413 11.222 13.506 15.784 14 21 C14.893 24.214 15.928 27.158 18.625 29.277 C20.795 31.996 20.054 34.326 19.688 37.688 C19.568 38.867 19.448 40.046 19.324 41.262 C19.217 42.165 19.11 43.069 19 44 C18.67 44 18.34 44 18 44 C17.67 40.37 17.34 36.74 17 33 C14.556 33.031 14.556 33.031 12.062 33.062 C10.375 33.084 8.686 33.072 7 33 C5.278 31.278 5.83 28.958 5.789 26.609 C5.761 25.507 5.732 24.405 5.703 23.27 C5.651 20.939 5.607 18.608 5.57 16.277 C5.539 15.17 5.508 14.063 5.477 12.922 C5.457 11.907 5.437 10.892 5.417 9.847 C4.798 5.622 2.982 2.982 0 0 Z " fill="#2B5387" transform="translate(407,284)"/>
<path d="M0 0 C0.66 0.33 1.32 0.66 2 1 C2 7.6 2 14.2 2 21 C-1.202 22.601 -4.526 22.499 -8 22 C-10.81 20.206 -12.509 18.981 -14 16 C-14.595 10.718 -14.869 6.43 -12.062 1.812 C-7.983 -0.602 -4.638 -0.638 0 0 Z " fill="#FAFBFC" transform="translate(442,290)"/>
<path d="M0 0 C0 1.32 0 2.64 0 4 C2.475 4.495 2.475 4.495 5 5 C5 5.66 5 6.32 5 7 C6.65 7 8.3 7 10 7 C10 7.99 10 8.98 10 10 C9.34 10 8.68 10 8 10 C8.495 12.475 8.495 12.475 9 15 C5.552 18.172 2.579 18.509 -2 19 C-3.339 19.309 -4.677 19.629 -6 20 C-6 19.34 -6 18.68 -6 18 C-10.95 18 -15.9 18 -21 18 C-21 17.34 -21 16.68 -21 16 C-21.66 16.33 -22.32 16.66 -23 17 C-23.33 31.52 -23.66 46.04 -24 61 C-24.33 61 -24.66 61 -25 61 C-25 45.49 -25 29.98 -25 14 C-9.655 13.505 -9.655 13.505 6 13 C6 12.01 6 11.02 6 10 C-5.378 6.084 -5.378 6.084 -17 3 C-17 2.67 -17 2.34 -17 2 C-16.313 2.023 -15.626 2.046 -14.918 2.07 C-14.017 2.088 -13.116 2.106 -12.188 2.125 C-11.294 2.148 -10.401 2.171 -9.48 2.195 C-5.588 1.889 -4.215 0 0 0 Z " fill="#7BCD3A" transform="translate(326,198)"/>
<path d="M0 0 C2.31 0 4.62 0 7 0 C7 11.22 7 22.44 7 34 C4.69 34 2.38 34 0 34 C0 22.78 0 11.56 0 0 Z " fill="#02346B" transform="translate(366,284)"/>
<path d="M0 0 C2.31 0 4.62 0 7 0 C7 11.22 7 22.44 7 34 C4.69 34 2.38 34 0 34 C0 22.78 0 11.56 0 0 Z " fill="#00326B" transform="translate(283,284)"/>
<path d="M0 0 C0.773 -0.017 1.547 -0.034 2.344 -0.051 C4.5 0.312 4.5 0.312 6.266 1.551 C7.836 3.792 7.84 5.098 7.75 7.812 C7.735 8.586 7.719 9.359 7.703 10.156 C7.5 12.312 7.5 12.312 6.5 15.312 C3.735 16.695 1.454 16.408 -1.625 16.375 C-2.721 16.366 -3.816 16.357 -4.945 16.348 C-6.21 16.33 -6.21 16.33 -7.5 16.312 C-7.581 14.021 -7.639 11.73 -7.688 9.438 C-7.722 8.161 -7.757 6.885 -7.793 5.57 C-7.696 4.495 -7.6 3.42 -7.5 2.312 C-4.402 0.247 -3.546 0.018 0 0 Z " fill="#3F5F95" transform="translate(314.5,289.6875)"/>
<path d="M0 0 C9.036 -0.482 9.036 -0.482 13.125 1.562 C15 4 15 4 15.625 7.438 C15 11 15 11 13.125 13.938 C8.586 16.933 5.372 16.358 0 16 C0 10.72 0 5.44 0 0 Z " fill="#FBFCFD" transform="translate(252,279)"/>
<path d="M0 0 C0.66 0.33 1.32 0.66 2 1 C-2.431 6.785 -2.431 6.785 -5.312 7.875 C-6.148 7.937 -6.148 7.937 -7 8 C-6.505 10.475 -6.505 10.475 -6 13 C-8.64 13 -11.28 13 -14 13 C-14 13.99 -14 14.98 -14 16 C-15.32 16 -16.64 16 -18 16 C-17.67 16.99 -17.34 17.98 -17 19 C-18.98 20.32 -20.96 21.64 -23 23 C-23 22.01 -23 21.02 -23 20 C-23.99 20.66 -24.98 21.32 -26 22 C-27.32 22 -28.64 22 -30 22 C-30 22.66 -30 23.32 -30 24 C-29.34 24 -28.68 24 -28 24 C-28.33 25.65 -28.66 27.3 -29 29 C-33.02 29.696 -36.083 30.17 -40 29 C-28.485 17.796 -14.389 7.252 0 0 Z " fill="#77CE38" transform="translate(247,176)"/>
<path d="M0 0 C0.33 0 0.66 0 1 0 C1 4.29 1 8.58 1 13 C5.62 12.67 10.24 12.34 15 12 C15.33 11.01 15.66 10.02 16 9 C16 13.62 16 18.24 16 23 C11.38 23.33 6.76 23.66 2 24 C2 24.66 2 25.32 2 26 C2.99 26.33 3.98 26.66 5 27 C4.34 27.66 3.68 28.32 3 29 C1.518 27.874 1.518 27.874 0 26 C-0.341 23.273 -0.341 23.273 -0.293 20.02 C-0.283 18.856 -0.274 17.693 -0.264 16.494 C-0.226 14.672 -0.226 14.672 -0.188 12.812 C-0.174 11.586 -0.16 10.359 -0.146 9.096 C-0.111 6.063 -0.062 3.032 0 0 Z " fill="#2A4F86" transform="translate(306,293)"/>
<path d="M0 0 C18 0 18 0 21 1 C21 1.66 21 2.32 21 3 C21.66 3 22.32 3 23 3 C23.33 3.99 23.66 4.98 24 6 C20.062 6 16.174 5.774 12.25 5.5 C9.857 5.335 7.465 5.17 5 5 C5 10.28 5 15.56 5 21 C4.34 20.67 3.68 20.34 3 20 C1.844 23.467 1.672 26.541 1.438 30.188 C1.354 31.46 1.27 32.732 1.184 34.043 C1.093 35.507 1.093 35.507 1 37 C0.67 37 0.34 37 0 37 C0 24.79 0 12.58 0 0 Z " fill="#01326C" transform="translate(246,274)"/>
<path d="M0 0 C0.773 -0.005 1.547 -0.01 2.344 -0.016 C4.5 0.25 4.5 0.25 7.5 2.25 C7.793 5.07 7.793 5.07 7.688 8.375 C7.66 9.471 7.633 10.566 7.605 11.695 C7.571 12.538 7.536 13.381 7.5 14.25 C7.17 13.59 6.84 12.93 6.5 12.25 C5.573 12.467 4.646 12.683 3.691 12.906 C2.494 13.185 1.296 13.463 0.062 13.75 C-1.132 14.028 -2.327 14.307 -3.559 14.594 C-6.5 15.25 -6.5 15.25 -7.5 15.25 C-7.581 13.126 -7.639 11 -7.688 8.875 C-7.722 7.692 -7.757 6.508 -7.793 5.289 C-7.696 4.286 -7.6 3.283 -7.5 2.25 C-4.378 0.169 -3.567 -0.024 0 0 Z " fill="#506DA2" transform="translate(397.5,289.75)"/>
<path d="M0 0 C0.33 0 0.66 0 1 0 C1 10.23 1 20.46 1 31 C-6.875 32.125 -6.875 32.125 -10 31 C-10 30.34 -10 29.68 -10 29 C-11.32 28.67 -12.64 28.34 -14 28 C-11.03 27.34 -8.06 26.68 -5 26 C-5 19.07 -5 12.14 -5 5 C-3.68 5 -2.36 5 -1 5 C-0.67 3.35 -0.34 1.7 0 0 Z " fill="#01316A" transform="translate(450,285)"/>
<path d="M0 0 C7.684 -0.296 7.684 -0.296 11 2 C12.525 5.05 12.236 7.642 12 11 C10.411 13.187 9.52 13.904 6.844 14.398 C5.684 14.387 5.684 14.387 4.5 14.375 C3.727 14.383 2.953 14.39 2.156 14.398 C-0.482 13.911 -1.392 13.114 -3 11 C-3 10.34 -3 9.68 -3 9 C-3.66 8.67 -4.32 8.34 -5 8 C-4.67 6.68 -4.34 5.36 -4 4 C-1.69 3.34 0.62 2.68 3 2 C2.01 1.34 1.02 0.68 0 0 Z " fill="#F6F9FA" transform="translate(151,298)"/>
<path d="M0 0 C1.162 0.429 1.162 0.429 2.348 0.867 C4.236 1.567 6.119 2.282 8 3 C8 3.33 8 3.66 8 4 C5.36 4 2.72 4 0 4 C0 3.34 0 2.68 0 2 C-1.825 2.495 -1.825 2.495 -3.688 3 C-6.872 3.803 -9.697 4.206 -13 4 C-13 3.34 -13 2.68 -13 2 C-13.66 2 -14.32 2 -15 2 C-15 1.34 -15 0.68 -15 0 C-15.887 0.309 -16.774 0.619 -17.688 0.938 C-20.467 1.829 -23.131 2.494 -26 3 C-26 3.99 -26 4.98 -26 6 C-26.804 5.979 -27.609 5.959 -28.438 5.938 C-30.934 5.704 -30.934 5.704 -32 7 C-33.849 7.234 -35.705 7.413 -37.562 7.562 C-39.08 7.688 -39.08 7.688 -40.629 7.816 C-41.411 7.877 -42.194 7.938 -43 8 C-40.286 5.813 -37.835 4.386 -34.559 3.211 C-33.728 2.909 -32.897 2.608 -32.041 2.297 C-31.182 1.993 -30.323 1.688 -29.438 1.375 C-28.143 0.907 -28.143 0.907 -26.822 0.43 C-16.718 -3.213 -10.094 -3.884 0 0 Z " fill="#75CD35" transform="translate(314,157)"/>
<path d="M0 0 C2.64 0 5.28 0 8 0 C8 11.22 8 22.44 8 34 C5.69 34 3.38 34 1 34 C1 32.35 1 30.7 1 29 C-0.609 29.124 -0.609 29.124 -2.25 29.25 C-6 29 -6 29 -8.438 27 C-8.953 26.34 -9.469 25.68 -10 25 C-9.505 23.515 -9.505 23.515 -9 22 C-8.34 22 -7.68 22 -7 22 C-7 22.99 -7 23.98 -7 25 C-3.7 25 -0.4 25 3 25 C3 26.32 3 27.64 3 29 C3.66 29 4.32 29 5 29 C5.33 19.76 5.66 10.52 6 1 C4.02 1 2.04 1 0 1 C0 0.67 0 0.34 0 0 Z " fill="#6B84B2" transform="translate(358,284)"/>
<path d="M0 0 C2.439 -0.135 4.871 -0.234 7.312 -0.312 C8.348 -0.375 8.348 -0.375 9.404 -0.439 C11.426 -0.488 11.426 -0.488 15 0 C16.98 2.52 16.98 2.52 18 5 C17.546 5.557 17.092 6.114 16.625 6.688 C14.882 8.943 14.882 8.943 14.062 11.688 C13 14 13 14 11 14.875 C9 15 9 15 7 14 C6.187 11.838 5.596 9.646 4.977 7.422 C3.787 4.473 2.066 2.397 0 0 Z " fill="#5E76A7" transform="translate(407,284)"/>
<path d="M0 0 C0.054 1.458 0.093 2.916 0.125 4.375 C0.148 5.187 0.171 5.999 0.195 6.836 C0 9 0 9 -2 11 C-5.125 11.125 -5.125 11.125 -8 11 C-8 11.99 -8 12.98 -8 14 C-8.99 14 -9.98 14 -11 14 C-11 14.66 -11 15.32 -11 16 C-11.99 16 -12.98 16 -14 16 C-14 17.32 -14 18.64 -14 20 C-14.99 20 -15.98 20 -17 20 C-17 21.32 -17 22.64 -17 24 C-17.66 24 -18.32 24 -19 24 C-19 24.66 -19 25.32 -19 26 C-10.09 26 -1.18 26 8 26 C8 26.33 8 26.66 8 27 C-1.24 27 -10.48 27 -20 27 C-21 24 -21 24 -19.988 21.758 C-16.322 15.997 -12.293 10.836 -7.688 5.812 C-6.896 4.947 -6.896 4.947 -6.089 4.065 C-2.259 0 -2.259 0 0 0 Z " fill="#81D047" transform="translate(207,206)"/>
<path d="M0 0 C0 10.56 0 21.12 0 32 C-0.33 32 -0.66 32 -1 32 C-1.02 31.355 -1.04 30.709 -1.06 30.044 C-1.155 27.112 -1.265 24.181 -1.375 21.25 C-1.406 20.234 -1.437 19.218 -1.469 18.172 C-1.507 17.192 -1.546 16.212 -1.586 15.203 C-1.633 13.852 -1.633 13.852 -1.681 12.474 C-2.011 9.912 -2.71 8.219 -4 6 C-4.66 6 -5.32 6 -6 6 C-6 13.26 -6 20.52 -6 28 C-7.32 27.67 -8.64 27.34 -10 27 C-9.34 27 -8.68 27 -8 27 C-8 20.4 -8 13.8 -8 7 C-11.3 6.67 -14.6 6.34 -18 6 C-18 4.68 -18 3.36 -18 2 C-16.691 1.653 -15.377 1.324 -14.062 1 C-12.966 0.722 -12.966 0.722 -11.848 0.438 C-7.942 -0.163 -3.952 0 0 0 Z " fill="#134071" transform="translate(452,284)"/>
<path d="M0 0 C3.96 0 7.92 0 12 0 C12 1.98 12 3.96 12 6 C13.65 6 15.3 6 17 6 C17 9.63 17 13.26 17 17 C12.675 15.27 9.562 13.929 6 11 C5.257 8.69 4.589 6.354 4 4 C2.68 2.68 1.36 1.36 0 0 Z " fill="#6B83B5" transform="translate(323,284)"/>
<path d="M0 0 C0.66 0 1.32 0 2 0 C3.354 2.709 3.065 5.009 3 8 C3.66 8 4.32 8 5 8 C5 8.99 5 9.98 5 11 C5.66 11.33 6.32 11.66 7 12 C6.01 14.31 5.02 16.62 4 19 C4.33 19 4.66 19 5 19 C5 20.65 5 22.3 5 24 C6.65 23.67 8.3 23.34 10 23 C10 24.98 10 26.96 10 29 C9.01 29.33 8.02 29.66 7 30 C6.267 32.015 6.267 32.015 6 34 C5.841 33.273 5.683 32.546 5.52 31.797 C3.743 24.14 1.189 17.173 -2 10 C-2.606 8.584 -3.211 7.168 -3.812 5.75 C-4.204 4.843 -4.596 3.935 -5 3 C-3.68 3.33 -2.36 3.66 -1 4 C-0.67 2.68 -0.34 1.36 0 0 Z " fill="#FBFDF8" transform="translate(413,215)"/>
<path d="M0 0 C2.475 0.99 2.475 0.99 5 2 C6.392 2.495 6.392 2.495 7.812 3 C10 5 10 5 10.312 7.418 C10.312 9.947 10.164 12.476 10 15 C6.7 15 3.4 15 0 15 C0 10.05 0 5.1 0 0 Z " fill="#486499" transform="translate(330,296)"/>
<path d="M0 0 C0.33 0 0.66 0 1 0 C1 10.89 1 21.78 1 33 C-0.32 33 -1.64 33 -3 33 C-3 22.77 -3 12.54 -3 2 C-2.67 2.66 -2.34 3.32 -2 4 C-1.34 4 -0.68 4 0 4 C0 2.68 0 1.36 0 0 Z " fill="#00346F" transform="translate(184,279)"/>
<path d="M0 0 C1.178 -0.008 1.178 -0.008 2.379 -0.016 C4.438 0.25 4.438 0.25 6.438 2.25 C6.562 5.375 6.562 5.375 6.438 8.25 C3.168 9.281 0.577 9.214 -2.812 8.812 C-4.151 8.66 -4.151 8.66 -5.516 8.504 C-6.191 8.42 -6.867 8.336 -7.562 8.25 C-7.75 5.375 -7.75 5.375 -7.562 2.25 C-4.428 0.161 -3.588 -0.024 0 0 Z " fill="#536FA4" transform="translate(314.5625,289.75)"/>
<path d="M0 0 C6.75 0.875 6.75 0.875 9 2 C9 2.66 9 3.32 9 4 C9.66 4 10.32 4 11 4 C11 4.66 11 5.32 11 6 C10.67 6.33 10.34 6.66 10 7 C10.409 9.054 10.409 9.054 11 11 C11.66 11 12.32 11 13 11 C13 11.66 13 12.32 13 13 C8.373 11.608 4.353 9.705 0.125 7.375 C-1.027 6.743 -2.18 6.112 -3.367 5.461 C-4.236 4.979 -5.105 4.497 -6 4 C-6 3.67 -6 3.34 -6 3 C-4.35 3 -2.7 3 -1 3 C-0.67 2.01 -0.34 1.02 0 0 Z " fill="#FDFEFC" transform="translate(361,171)"/>
<path d="M0 0 C1.096 0.009 2.191 0.018 3.32 0.027 C4.163 0.039 5.006 0.051 5.875 0.062 C5.875 0.392 5.875 0.723 5.875 1.062 C11.155 1.392 16.435 1.723 21.875 2.062 C21.875 2.392 21.875 2.723 21.875 3.062 C14.285 3.062 6.695 3.062 -1.125 3.062 C-1.125 14.283 -1.125 25.502 -1.125 37.062 C-1.455 37.062 -1.785 37.062 -2.125 37.062 C-2.455 29.142 -2.785 21.223 -3.125 13.062 C-3.455 13.062 -3.785 13.062 -4.125 13.062 C-4.125 10.092 -4.125 7.123 -4.125 4.062 C-4.785 4.062 -5.445 4.062 -6.125 4.062 C-6.455 6.373 -6.785 8.683 -7.125 11.062 C-7.455 11.062 -7.785 11.062 -8.125 11.062 C-8.125 7.762 -8.125 4.462 -8.125 1.062 C-5.36 -0.32 -3.079 -0.033 0 0 Z " fill="#D9E3EC" transform="translate(284.125,280.9375)"/>
<path d="M0 0 C1.446 2.892 0.674 4.909 0.125 8.062 C-0.058 9.147 -0.241 10.231 -0.43 11.348 C-1 14 -1 14 -2 15 C-1.01 15.66 -0.02 16.32 1 17 C-2.3 17 -5.6 17 -9 17 C-9.614 11.123 -9.614 11.123 -9 8 C-7.377 6.249 -5.808 5.226 -3.727 4.07 C-1.677 2.965 -1.677 2.965 0 0 Z " fill="#0D3C71" transform="translate(309,375)"/>
<path d="M0 0 C0.66 0 1.32 0 2 0 C6.119 8.389 9.987 16.822 12 26 C11.67 26.66 11.34 27.32 11 28 C10.67 26.35 10.34 24.7 10 23 C8.68 23 7.36 23 6 23 C6 22.01 6 21.02 6 20 C5.01 19.67 4.02 19.34 3 19 C3.33 18.67 3.66 18.34 4 18 C3.898 16.086 3.898 16.086 3.562 13.938 C3.377 12.638 3.191 11.339 3 10 C2.34 10 1.68 10 1 10 C0.637 8.711 0.285 7.418 -0.062 6.125 C-0.358 5.046 -0.358 5.046 -0.66 3.945 C-1 2 -1 2 0 0 Z " fill="#7AD03F" transform="translate(407,219)"/>
<path d="M0 0 C0.33 0 0.66 0 1 0 C1 8.25 1 16.5 1 25 C-2.63 25.66 -6.26 26.32 -10 27 C-10.686 23.572 -11.123 21.145 -11.098 17.793 C-11.094 17.042 -11.091 16.291 -11.088 15.518 C-11.08 14.749 -11.071 13.98 -11.062 13.188 C-11.056 12.005 -11.056 12.005 -11.049 10.799 C-11.037 8.866 -11.019 6.933 -11 5 C-10.67 5 -10.34 5 -10 5 C-9.67 9.95 -9.34 14.9 -9 20 C-6.03 20.33 -3.06 20.66 0 21 C0 14.07 0 7.14 0 0 Z " fill="#234B83" transform="translate(340,290)"/>
<path d="M0 0 C7.4 3.841 14.276 8.07 21 13 C18.108 13.826 16.113 14 13 14 C12.526 13.34 12.051 12.68 11.562 12 C11.047 11.34 10.531 10.68 10 10 C7.374 9.666 7.374 9.666 5 10 C4.67 9.34 4.34 8.68 4 8 C1.975 7.348 1.975 7.348 0 7 C0 4.69 0 2.38 0 0 Z " fill="#76CC3A" transform="translate(364,179)"/>
<path d="M0 0 C1.32 0.33 2.64 0.66 4 1 C3.67 10.57 3.34 20.14 3 30 C2.34 30 1.68 30 1 30 C0.67 30.99 0.34 31.98 0 33 C0 22.11 0 11.22 0 0 Z " fill="#89A0C9" transform="translate(290,284)"/>
<path d="M0 0 C0.412 0.639 0.825 1.279 1.25 1.938 C2.964 4.388 2.964 4.388 6.688 4.75 C7.781 4.832 8.874 4.915 10 5 C10 5.33 10 5.66 10 6 C7.36 6.33 4.72 6.66 2 7 C2 7.66 2 8.32 2 9 C5.63 9.33 9.26 9.66 13 10 C12.67 10.66 12.34 11.32 12 12 C5.722 12.502 2.041 12.201 -3 8 C-3.619 7.505 -4.238 7.01 -4.875 6.5 C-6 5 -6 5 -6 1 C-3 0 -3 0 0 0 Z " fill="#113F71" transform="translate(148,307)"/>
<path d="M0 0 C2.31 0.33 4.62 0.66 7 1 C6.67 2.65 6.34 4.3 6 6 C6.99 6.33 7.98 6.66 9 7 C8.34 7 7.68 7 7 7 C7 7.66 7 8.32 7 9 C7.66 9 8.32 9 9 9 C9 9.66 9 10.32 9 11 C9.66 11 10.32 11 11 11 C11 11.66 11 12.32 11 13 C4.893 11.235 -1.074 9.304 -7 7 C-6.402 6.773 -5.804 6.546 -5.188 6.312 C-2.436 4.662 -1.475 2.803 0 0 Z " fill="#F9FDF5" transform="translate(326,153)"/>
<path d="M0 0 C0.495 1.485 0.495 1.485 1 3 C0.34 3.99 -0.32 4.98 -1 6 C-3.117 6.328 -3.117 6.328 -5.875 6.25 C-7.457 6.211 -7.457 6.211 -9.07 6.172 C-17.049 5.823 -25.025 5.441 -33 5 C-33.33 4.34 -33.66 3.68 -34 3 C-31.48 2.803 -28.959 2.617 -26.438 2.438 C-25.733 2.381 -25.029 2.325 -24.303 2.268 C-19.686 1.948 -15.559 2.191 -11 3 C-10.67 2.34 -10.34 1.68 -10 1 C-9.362 1.012 -8.724 1.023 -8.066 1.035 C-7.24 1.044 -6.414 1.053 -5.562 1.062 C-4.327 1.08 -4.327 1.08 -3.066 1.098 C-1.008 1.233 -1.008 1.233 0 0 Z " fill="#0C3C76" transform="translate(424,315)"/>
<path d="M0 0 C2.31 0 4.62 0 7 0 C7 11.22 7 22.44 7 34 C5.02 34 3.04 34 1 34 C1 31.03 1 28.06 1 25 C1.99 24.67 2.98 24.34 4 24 C4.66 24.33 5.32 24.66 6 25 C6 17.08 6 9.16 6 1 C4.02 1 2.04 1 0 1 C0 0.67 0 0.34 0 0 Z " fill="#0B3970" transform="translate(283,284)"/>
<path d="M0 0 C0.33 1.98 0.66 3.96 1 6 C-1.833 7.416 -4.475 7.346 -7.625 7.562 C-8.814 7.646 -10.002 7.73 -11.227 7.816 C-12.142 7.877 -13.057 7.938 -14 8 C-14 6.35 -14 4.7 -14 3 C-9.771 0.357 -4.916 0 0 0 Z " fill="#34568D" transform="translate(404,302)"/>
<path d="M0 0 C0 3.3 0 6.6 0 10 C3.3 10 6.6 10 10 10 C10 11.98 10 13.96 10 16 C9.67 16 9.34 16 9 16 C9 14.35 9 12.7 9 11 C6.03 11 3.06 11 0 11 C0 11.66 0 12.32 0 13 C-4.875 11.125 -4.875 11.125 -6 10 C-6.232 8.485 -6.412 6.962 -6.562 5.438 C-6.646 4.611 -6.73 3.785 -6.816 2.934 C-6.877 2.296 -6.938 1.657 -7 1 C-4.509 0.313 -2.621 0 0 0 Z " fill="#03356E" transform="translate(348,274)"/>
<path d="M0 0 C1.062 1.875 1.062 1.875 2 4 C1.67 4.66 1.34 5.32 1 6 C-6.26 6 -13.52 6 -21 6 C-19.68 5.34 -18.36 4.68 -17 4 C-16.67 3.01 -16.34 2.02 -16 1 C-14.929 1.012 -13.858 1.023 -12.754 1.035 C-11.357 1.045 -9.96 1.054 -8.562 1.062 C-7.855 1.071 -7.148 1.079 -6.42 1.088 C-4.613 1.097 -2.806 1.052 -1 1 C-0.67 0.67 -0.34 0.34 0 0 Z " fill="#002E68" transform="translate(203,311)"/>
<path d="M0 0 C3.63 0 7.26 0 11 0 C10.67 1.32 10.34 2.64 10 4 C12.31 4.33 14.62 4.66 17 5 C17 5.33 17 5.66 17 6 C10.982 7.553 5.195 7.924 -0.562 5.5 C-1.367 5.005 -2.171 4.51 -3 4 C-2.34 3.67 -1.68 3.34 -1 3 C-0.67 2.01 -0.34 1.02 0 0 Z " fill="#133E70" transform="translate(430,312)"/>
<path d="M0 0 C0.33 0 0.66 0 1 0 C1 6.27 1 12.54 1 19 C-2.053 20.526 -4.758 19.838 -8.125 19.562 C-9.406 19.461 -10.688 19.359 -12.008 19.254 C-12.995 19.17 -13.983 19.086 -15 19 C-14.67 17.68 -14.34 16.36 -14 15 C-9.38 14.67 -4.76 14.34 0 14 C0 9.38 0 4.76 0 0 Z " fill="#295088" transform="translate(405,294)"/>
<path d="M0 0 C0.33 0 0.66 0 1 0 C1 6.93 1 13.86 1 21 C2.98 20.67 4.96 20.34 7 20 C8.624 19.938 10.25 19.913 11.875 19.938 C13.047 19.951 13.047 19.951 14.242 19.965 C14.822 19.976 15.402 19.988 16 20 C16 20.99 16 21.98 16 23 C11.38 23.33 6.76 23.66 2 24 C2 24.66 2 25.32 2 26 C2.99 26.33 3.98 26.66 5 27 C4.34 27.66 3.68 28.32 3 29 C1.518 27.874 1.518 27.874 0 26 C-0.341 23.273 -0.341 23.273 -0.293 20.02 C-0.283 18.856 -0.274 17.693 -0.264 16.494 C-0.226 14.672 -0.226 14.672 -0.188 12.812 C-0.174 11.586 -0.16 10.359 -0.146 9.096 C-0.111 6.063 -0.062 3.032 0 0 Z " fill="#1D4880" transform="translate(306,293)"/>
<path d="M0 0 C0.33 2.31 0.66 4.62 1 7 C0.67 6.34 0.34 5.68 0 5 C-0.927 5.217 -1.854 5.433 -2.809 5.656 C-4.006 5.935 -5.204 6.213 -6.438 6.5 C-8.23 6.918 -8.23 6.918 -10.059 7.344 C-13 8 -13 8 -14 8 C-13.67 5.69 -13.34 3.38 -13 1 C-11.208 0.832 -9.417 0.666 -7.625 0.5 C-6.627 0.407 -5.63 0.314 -4.602 0.219 C-2 0 -2 0 0 0 Z " fill="#466499" transform="translate(404,297)"/>
<path d="M0 0 C1.65 0 3.3 0 5 0 C4.67 1.32 4.34 2.64 4 4 C4.598 3.814 5.196 3.629 5.812 3.438 C8 3 8 3 11 4 C10.67 3.01 10.34 2.02 10 1 C11.65 1 13.3 1 15 1 C15 1.66 15 2.32 15 3 C15.99 3.33 16.98 3.66 18 4 C15.294 4.675 12.585 5.34 9.875 6 C8.734 6.286 8.734 6.286 7.57 6.578 C3.284 7.613 -0.554 8.227 -5 8 C-4.67 6.68 -4.34 5.36 -4 4 C-2.35 3.67 -0.7 3.34 1 3 C0.67 2.01 0.34 1.02 0 0 Z " fill="#76CC35" transform="translate(264,197)"/>
<path d="M0 0 C4.325 1.659 7.094 4.871 10.25 8.125 C11.081 8.97 11.081 8.97 11.93 9.832 C13.291 11.217 14.646 12.608 16 14 C15.67 14.99 15.34 15.98 15 17 C14.34 16.34 13.68 15.68 13 15 C12.67 15.99 12.34 16.98 12 18 C11.34 18 10.68 18 10 18 C10 17.34 10 16.68 10 16 C9.01 16 8.02 16 7 16 C7 13.69 7 11.38 7 9 C6.34 9 5.68 9 5 9 C5 7.68 5 6.36 5 5 C4.01 5.33 3.02 5.66 2 6 C1.34 4.02 0.68 2.04 0 0 Z " fill="#78CE3C" transform="translate(385,193)"/>
<path d="M0 0 C1.98 0.495 1.98 0.495 4 1 C3.01 1 2.02 1 1 1 C2.359 5.448 4.272 7.297 8 10 C8.66 10.66 9.32 11.32 10 12 C8.35 12.33 6.7 12.66 5 13 C5 14.32 5 15.64 5 17 C4.01 17.33 3.02 17.66 2 18 C1 17 1 17 0.938 14.438 C0.958 13.633 0.979 12.829 1 12 C0.34 11.67 -0.32 11.34 -1 11 C-1.143 3.571 -1.143 3.571 0 0 Z " fill="#FBFDFD" transform="translate(141,307)"/>
<path d="M0 0 C1 3 1 3 1 7 C-1.405 8.203 -2.95 8.101 -5.625 8.062 C-6.851 8.049 -6.851 8.049 -8.102 8.035 C-9.041 8.018 -9.041 8.018 -10 8 C-10 5.69 -10 3.38 -10 1 C-6.7 0.67 -3.4 0.34 0 0 Z " fill="#1A477A" transform="translate(159,290)"/>
<path d="M0 0 C0 4.29 0 8.58 0 13 C-1.98 13.66 -3.96 14.32 -6 15 C-6.826 12.108 -7 10.113 -7 7 C-6.34 7 -5.68 7 -5 7 C-4.897 6.216 -4.794 5.433 -4.688 4.625 C-4.005 2.021 -3.235 0 0 0 Z " fill="#01336B" transform="translate(218,290)"/>
<path d="M0 0 C-0.66 1.32 -1.32 2.64 -2 4 C-2.99 4 -3.98 4 -5 4 C-5.186 4.639 -5.371 5.279 -5.562 5.938 C-6.037 6.618 -6.511 7.299 -7 8 C-9.322 8.407 -11.657 8.744 -14 9 C-14.33 9.66 -14.66 10.32 -15 11 C-17.31 11 -19.62 11 -22 11 C-18.239 7.768 -14.306 5.423 -9.875 3.25 C-9.255 2.934 -8.635 2.618 -7.996 2.293 C-5.135 0.872 -3.238 0 0 0 Z " fill="#7FD045" transform="translate(271,165)"/>
<path d="M0 0 C3.457 2.852 4.899 4.145 5.438 8.688 C5 12 5 12 3 14 C1.68 13.34 0.36 12.68 -1 12 C-1.99 13.485 -1.99 13.485 -3 15 C-3.66 14.67 -4.32 14.34 -5 14 C-4.549 12.539 -4.089 11.082 -3.625 9.625 C-3.37 8.813 -3.115 8.001 -2.852 7.164 C-2 5 -2 5 0 3 C0 2.01 0 1.02 0 0 Z " fill="#0A3971" transform="translate(165,275)"/>
<path d="M0 0 C2.31 0 4.62 0 7 0 C7 0.99 7 1.98 7 3 C5.031 4.696 3.113 6.195 1 7.688 C0.428 8.103 -0.145 8.519 -0.734 8.947 C-2.15 9.974 -3.574 10.988 -5 12 C-6.062 10.125 -6.062 10.125 -7 8 C-6.67 7.34 -6.34 6.68 -6 6 C-5.67 6.99 -5.34 7.98 -5 9 C-4.34 9 -3.68 9 -3 9 C-3.33 7.68 -3.66 6.36 -4 5 C-2.68 5 -1.36 5 0 5 C0 3.35 0 1.7 0 0 Z " fill="#0B3A70" transform="translate(383,404)"/>
<path d="M0 0 C0.495 0.371 0.99 0.743 1.5 1.125 C1.5 1.785 1.5 2.445 1.5 3.125 C0.84 3.125 0.18 3.125 -0.5 3.125 C-0.83 5.435 -1.16 7.745 -1.5 10.125 C-2.629 9.192 -3.753 8.254 -4.875 7.312 C-5.501 6.79 -6.128 6.268 -6.773 5.73 C-8.5 4.125 -8.5 4.125 -10.5 1.125 C-3.115 -1.09 -3.115 -1.09 0 0 Z " fill="#F7FCF2" transform="translate(400.5,194.875)"/>
<path d="M0 0 C-3.405 2.27 -6.981 3.923 -10.688 5.625 C-11.389 5.95 -12.091 6.275 -12.814 6.609 C-14.542 7.408 -16.271 8.205 -18 9 C-18.625 7.125 -18.625 7.125 -19 5 C-14.321 0.321 -6.324 -2.051 0 0 Z " fill="#77CD34" transform="translate(257,206)"/>
<path d="M0 0 C0 0.33 0 0.66 0 1 C-1.111 1.014 -1.111 1.014 -2.244 1.028 C-5.642 1.082 -9.04 1.166 -12.438 1.25 C-14.185 1.271 -14.185 1.271 -15.967 1.293 C-22.483 1.477 -27.34 2.171 -33.152 5.149 C-35.614 6.283 -37.423 6.253 -40.062 5.75 C-40.817 5.621 -41.571 5.492 -42.348 5.359 C-42.893 5.241 -43.438 5.122 -44 5 C-31.941 -3.039 -13.739 -0.29 0 0 Z " fill="#E6F7D9" transform="translate(309,200)"/>
<path d="M0 0 C8.415 3.96 8.415 3.96 17 8 C13 9 13 9 10 8 C10 7.34 10 6.68 10 6 C9.34 6 8.68 6 8 6 C8 6.66 8 7.32 8 8 C2.25 8.125 2.25 8.125 0 7 C0 4.69 0 2.38 0 0 Z " fill="#76CB38" transform="translate(346,170)"/>
<path d="M0 0 C0.33 0.66 0.66 1.32 1 2 C4.3 1.67 7.6 1.34 11 1 C10.67 2.32 10.34 3.64 10 5 C9.01 5.33 8.02 5.66 7 6 C7.33 6.99 7.66 7.98 8 9 C3.766 7.689 -0.074 6.056 -4 4 C-2.68 2.68 -1.36 1.36 0 0 Z " fill="#F4FBEE" transform="translate(347,165)"/>
<path d="M0 0 C-0.99 1.485 -0.99 1.485 -2 3 C-2.99 3 -3.98 3 -5 3 C-5 3.99 -5 4.98 -5 6 C-6.207 5.969 -6.207 5.969 -7.438 5.938 C-9.934 5.704 -9.934 5.704 -11 7 C-12.849 7.234 -14.705 7.413 -16.562 7.562 C-18.08 7.688 -18.08 7.688 -19.629 7.816 C-20.411 7.877 -21.194 7.938 -22 8 C-18.364 4.84 -14.329 3.391 -9.875 1.75 C-9.147 1.469 -8.418 1.188 -7.668 0.898 C-2.249 -1.125 -2.249 -1.125 0 0 Z " fill="#87D152" transform="translate(293,157)"/>
<path d="M0 0 C2.051 0.033 4.102 0.065 6.152 0.098 C6.482 2.408 6.812 4.718 7.152 7.098 C3.852 7.098 0.552 7.098 -2.848 7.098 C-2.89 5.098 -2.888 3.097 -2.848 1.098 C-1.848 0.098 -1.848 0.098 0 0 Z " fill="#34578C" transform="translate(332.84765625,303.90234375)"/>
<path d="M0 0 C3.3 0.33 6.6 0.66 10 1 C9.67 2.98 9.34 4.96 9 7 C9.99 7.33 10.98 7.66 12 8 C10.35 9.32 8.7 10.64 7 12 C5.831 10.189 4.665 8.376 3.5 6.562 C2.85 5.553 2.201 4.544 1.531 3.504 C0 1 0 1 0 0 Z " fill="#F7FCF2" transform="translate(400,206)"/>
<path d="M0 0 C6.856 1.926 13.433 4.247 20 7 C16.34 7.941 12.773 8.657 9 9 C8.01 8.34 7.02 7.68 6 7 C6 6.34 6 5.68 6 5 C5.196 4.732 4.391 4.464 3.562 4.188 C2.717 3.796 1.871 3.404 1 3 C0.67 2.01 0.34 1.02 0 0 Z " fill="#78CC3C" transform="translate(323,161)"/>
<path d="M0 0 C7 0 7 0 9 1 C9 1.66 9 2.32 9 3 C7.35 3 5.7 3 4 3 C4 2.34 4 1.68 4 1 C3.01 1 2.02 1 1 1 C1.118 5.075 1.243 9.15 1.372 13.225 C1.416 14.611 1.457 15.997 1.497 17.384 C1.555 19.377 1.619 21.37 1.684 23.363 C1.72 24.563 1.757 25.762 1.795 26.997 C1.877 30.05 1.877 30.05 3 33 C3.66 33.33 4.32 33.66 5 34 C3.35 34 1.7 34 0 34 C0 22.78 0 11.56 0 0 Z " fill="#0A396C" transform="translate(299,284)"/>
<path d="M0 0 C1.65 0 3.3 0 5 0 C4.67 3.3 4.34 6.6 4 10 C2.68 8.68 1.36 7.36 0 6 C0 13.59 0 21.18 0 29 C-0.33 29 -0.66 29 -1 29 C-1.025 25.031 -1.043 21.061 -1.055 17.092 C-1.06 15.741 -1.067 14.39 -1.075 13.038 C-1.088 11.1 -1.093 9.161 -1.098 7.223 C-1.103 6.055 -1.108 4.887 -1.114 3.684 C-1 1 -1 1 0 0 Z " fill="#6177A9" transform="translate(294,284)"/>
<path d="M0 0 C0.33 0.99 0.66 1.98 1 3 C1.99 2.67 2.98 2.34 4 2 C4 2.99 4 3.98 4 5 C5.32 5.66 6.64 6.32 8 7 C6.422 8.551 6.422 8.551 4 10 C0.766 9.855 0.766 9.855 -2.75 9.188 C-3.92 8.975 -5.091 8.762 -6.297 8.543 C-7.189 8.364 -8.081 8.185 -9 8 C-9 7.67 -9 7.34 -9 7 C-7.02 7 -5.04 7 -3 7 C-2.691 6.031 -2.381 5.061 -2.062 4.062 C-1 1 -1 1 0 0 Z " fill="#ECF1F5" transform="translate(443,275)"/>
<path d="M0 0 C0.33 0.99 0.66 1.98 1 3 C2.98 3 4.96 3 7 3 C7 5.97 7 8.94 7 12 C5.02 12 3.04 12 1 12 C0.67 8.04 0.34 4.08 0 0 Z " fill="#49669A" transform="translate(413,295)"/>
<path d="M0 0 C2.252 2.688 3.882 4.646 5 8 C4.685 9.338 4.354 10.672 4 12 C4.33 12.33 4.66 12.66 5 13 C5.041 14.666 5.043 16.334 5 18 C4.01 18.33 3.02 18.66 2 19 C2 15.7 2 12.4 2 9 C0.68 9.33 -0.64 9.66 -2 10 C-2 9.34 -2 8.68 -2 8 C-1.34 8 -0.68 8 0 8 C-0.371 7.423 -0.743 6.845 -1.125 6.25 C-2 4 -2 4 -1.125 1.75 C-0.754 1.173 -0.382 0.595 0 0 Z " fill="#72CF30" transform="translate(403,211)"/>
<path d="M0 0 C2.64 0 5.28 0 8 0 C7.67 0.99 7.34 1.98 7 3 C6.34 3 5.68 3 5 3 C5 10.26 5 17.52 5 25 C3.68 24.67 2.36 24.34 1 24 C1.66 24 2.32 24 3 24 C3 17.4 3 10.8 3 4 C0.03 3.67 -2.94 3.34 -6 3 C-6 2.67 -6 2.34 -6 2 C-4.02 2 -2.04 2 0 2 C0 1.34 0 0.68 0 0 Z " fill="#446A92" transform="translate(441,287)"/>
<path d="M0 0 C0.33 0 0.66 0 1 0 C1 2.31 1 4.62 1 7 C-2.285 8.095 -4.737 8.1 -8.188 8.062 C-9.818 8.049 -9.818 8.049 -11.48 8.035 C-12.312 8.024 -13.143 8.012 -14 8 C-14 6.68 -14 5.36 -14 4 C-9.38 3.67 -4.76 3.34 0 3 C0 2.01 0 1.02 0 0 Z " fill="#34578E" transform="translate(321,302)"/>
<path d="M0 0 C0.33 0 0.66 0 1 0 C1.054 2.083 1.093 4.166 1.125 6.25 C1.148 7.41 1.171 8.57 1.195 9.766 C1.01 12.828 0.608 14.442 -1 17 C-1.99 16.67 -2.98 16.34 -4 16 C-4 12.37 -4 8.74 -4 5 C-3.01 5.33 -2.02 5.66 -1 6 C-0.67 4.02 -0.34 2.04 0 0 Z " fill="#526CA2" transform="translate(298,285)"/>
<path d="M0 0 C2.97 0 5.94 0 9 0 C9 3 9 3 7.688 4.387 C6.125 5.591 4.562 6.796 3 8 C1.68 7.34 0.36 6.68 -1 6 C-1 5.34 -1 4.68 -1 4 C-0.34 4 0.32 4 1 4 C0.67 2.68 0.34 1.36 0 0 Z " fill="#73CD2E" transform="translate(213,224)"/>
<path d="M0 0 C1 3 1 3 -0.004 5.086 C-3.235 9.831 -6.192 13.795 -11 17 C-11.99 16.67 -12.98 16.34 -14 16 C-13.274 15.295 -12.549 14.59 -11.801 13.863 C-9.063 11.125 -6.62 8.201 -4.188 5.188 C-3.397 4.212 -2.607 3.236 -1.793 2.23 C-1.201 1.494 -0.61 0.758 0 0 Z " fill="#F2F6F8" transform="translate(404,391)"/>
<path d="M0 0 C1.073 0.003 2.146 0.006 3.252 0.01 C4.372 0.018 5.491 0.027 6.645 0.035 C8.341 0.042 8.341 0.042 10.072 0.049 C12.867 0.061 15.662 0.077 18.457 0.098 C18.457 0.428 18.457 0.758 18.457 1.098 C17.489 1.173 17.489 1.173 16.501 1.25 C13.569 1.482 10.638 1.727 7.707 1.973 C6.183 2.091 6.183 2.091 4.629 2.211 C3.649 2.295 2.67 2.379 1.66 2.465 C0.309 2.575 0.309 2.575 -1.069 2.687 C-3.58 3.104 -5.347 3.838 -7.543 5.098 C-7.873 3.778 -8.203 2.458 -8.543 1.098 C-5.425 0.058 -3.268 -0.017 0 0 Z " fill="#E9F0F5" transform="translate(363.54296875,317.90234375)"/>
<path d="M0 0 C0.99 0.66 1.98 1.32 3 2 C3 2.99 3 3.98 3 5 C3.66 5 4.32 5 5 5 C4.688 6.938 4.688 6.938 4 9 C3.01 9.33 2.02 9.66 1 10 C1.33 10.99 1.66 11.98 2 13 C0.68 12.67 -0.64 12.34 -2 12 C-2.33 10.35 -2.66 8.7 -3 7 C-2.34 6.67 -1.68 6.34 -1 6 C-0.342 2.971 -0.342 2.971 0 0 Z " fill="#013069" transform="translate(163,283)"/>
<path d="M0 0 C1.98 1.65 3.96 3.3 6 5 C5.34 5.66 4.68 6.32 4 7 C3.34 7 2.68 7 2 7 C1.67 7.66 1.34 8.32 1 9 C-3.677 7.523 -3.677 7.523 -5.312 4.875 C-5.539 4.256 -5.766 3.637 -6 3 C-4.02 2.67 -2.04 2.34 0 2 C0 1.34 0 0.68 0 0 Z " fill="#06346C" transform="translate(428,306)"/>
<path d="M0 0 C0 1.65 0 3.3 0 5 C-6.081 6.808 -11.169 4.837 -17 3 C-17 2.67 -17 2.34 -17 2 C-16.313 2.023 -15.626 2.046 -14.918 2.07 C-14.017 2.088 -13.116 2.106 -12.188 2.125 C-11.294 2.148 -10.401 2.171 -9.48 2.195 C-5.588 1.889 -4.215 0 0 0 Z " fill="#82D047" transform="translate(326,198)"/>
<path d="M0 0 C3.495 -0.499 5.989 -0.716 8.953 1.383 C12.245 4.578 14.767 7.479 16 12 C14.188 11.812 14.188 11.812 12 11 C10.375 8.562 10.375 8.562 9 6 C6.314 3.314 3.624 2.94 0 2 C0 1.34 0 0.68 0 0 Z " fill="#EAF0F5" transform="translate(299,318)"/>
<path d="M0 0 C0.33 0 0.66 0 1 0 C2.759 10.747 2.759 10.747 0.25 14.625 C-2 17 -2 17 -5 18 C-4.67 16.68 -4.34 15.36 -4 14 C-3.34 14 -2.68 14 -2 14 C-2 13.34 -2 12.68 -2 12 C-3.65 12.33 -5.3 12.66 -7 13 C-6.526 12.546 -6.051 12.092 -5.562 11.625 C-3.91 10.067 -3.91 10.067 -3 8 C-2.34 7.67 -1.68 7.34 -1 7 C-0.593 4.678 -0.256 2.343 0 0 Z " fill="#07376D" transform="translate(272,282)"/>
<path d="M0 0 C2.31 0 4.62 0 7 0 C7 2.31 7 4.62 7 7 C4.69 7 2.38 7 0 7 C0 4.69 0 2.38 0 0 Z " fill="#1C4878" transform="translate(366,272)"/>
<path d="M0 0 C2.31 0 4.62 0 7 0 C7 2.31 7 4.62 7 7 C4.69 7 2.38 7 0 7 C0 4.69 0 2.38 0 0 Z " fill="#0E3C6E" transform="translate(283,272)"/>
<path d="M0 0 C2 1 2 1 3 2 C3.041 3.666 3.043 5.334 3 7 C4.65 6.67 6.3 6.34 8 6 C8 7.98 8 9.96 8 12 C7.01 12.33 6.02 12.66 5 13 C4.267 15.015 4.267 15.015 4 17 C3.519 15.105 3.041 13.209 2.562 11.312 C2.296 10.257 2.029 9.201 1.754 8.113 C1.101 5.417 0.521 2.724 0 0 Z " fill="#F4FBEE" transform="translate(415,232)"/>
<path d="M0 0 C7.92 0.33 15.84 0.66 24 1 C22 3 22 3 18.262 3.23 C16.737 3.226 15.212 3.212 13.688 3.188 C12.548 3.187 12.548 3.187 11.385 3.186 C7.465 3.155 3.826 2.955 0 2 C0 1.34 0 0.68 0 0 Z " fill="#7ED13C" transform="translate(285,197)"/>
<path d="M0 0 C1.591 -0.025 1.591 -0.025 3.215 -0.051 C6.062 0.312 6.062 0.312 7.941 1.832 C8.496 2.565 8.496 2.565 9.062 3.312 C2.966 4.638 -1.915 3.779 -7.938 2.312 C-5.246 -0.379 -3.747 0.014 0 0 Z " fill="#154374" transform="translate(155.9375,271.6875)"/>
<path d="M0 0 C-0.66 1.32 -1.32 2.64 -2 4 C-5.63 3.34 -9.26 2.68 -13 2 C-13 1.34 -13 0.68 -13 0 C-4.571 -2.571 -4.571 -2.571 0 0 Z " fill="#023065" transform="translate(163,314)"/>
<path d="M0 0 C4.62 0 9.24 0 14 0 C13.67 0.99 13.34 1.98 13 3 C8.624 3.593 4.425 4.138 0 4 C0 2.68 0 1.36 0 0 Z " fill="#4A669B" transform="translate(307,298)"/>
<path d="M0 0 C1 3.875 1 3.875 1 5 C2.32 5 3.64 5 5 5 C4.34 6.65 3.68 8.3 3 10 C2.01 10 1.02 10 0 10 C0 9.34 0 8.68 0 8 C-1.65 8 -3.3 8 -5 8 C-2.25 1.125 -2.25 1.125 0 0 Z " fill="#103E72" transform="translate(212,299)"/>
<path d="M0 0 C2.475 0.495 2.475 0.495 5 1 C5.33 1.99 5.66 2.98 6 4 C6.99 4.33 7.98 4.66 9 5 C8.67 5.99 8.34 6.98 8 8 C6.062 8.75 6.062 8.75 4 9 C2 8 2 8 1.367 6.152 C1.205 5.421 1.042 4.691 0.875 3.938 C0.707 3.204 0.54 2.471 0.367 1.715 C0.246 1.149 0.125 0.583 0 0 Z " fill="#576FA3" transform="translate(412,290)"/>
<path d="M0 0 C4.95 0 9.9 0 15 0 C15 0.99 15 1.98 15 3 C12.264 3.912 10.344 4.222 7.5 4.312 C6.34 4.369 6.34 4.369 5.156 4.426 C3 4 3 4 0 0 Z " fill="#6C81AE" transform="translate(407,284)"/>
<path d="M0 0 C0.99 0.33 1.98 0.66 3 1 C3 2.65 3 4.3 3 6 C4.32 5.34 5.64 4.68 7 4 C7 6.31 7 8.62 7 11 C5.35 11 3.7 11 2 11 C0.198 7.17 -0.196 4.219 0 0 Z " fill="#002F68" transform="translate(163,297)"/>
<path d="M0 0 C2.125 0.938 2.125 0.938 4 2 C3.34 3.98 2.68 5.96 2 8 C1.01 8 0.02 8 -1 8 C-1 7.01 -1 6.02 -1 5 C-2.65 4.67 -4.3 4.34 -6 4 C-4.036 2.494 -2.217 1.109 0 0 Z " fill="#00326E" transform="translate(340,392)"/>
<path d="M0 0 C0.33 0.99 0.66 1.98 1 3 C-4.324 5.321 -8.438 4.915 -14 4 C-13.67 3.34 -13.34 2.68 -13 2 C-10.566 1.367 -10.566 1.367 -7.562 0.875 C-6.079 0.624 -6.079 0.624 -4.566 0.367 C-2 0 -2 0 0 0 Z " fill="#3C5C90" transform="translate(404,302)"/>
<path d="M0 0 C0.99 0.33 1.98 0.66 3 1 C3 3.97 3 6.94 3 10 C2.34 9.67 1.68 9.34 1 9 C0.67 13.29 0.34 17.58 0 22 C-0.33 22 -0.66 22 -1 22 C-1.029 18.521 -1.047 15.042 -1.062 11.562 C-1.071 10.569 -1.079 9.576 -1.088 8.553 C-1.091 7.608 -1.094 6.664 -1.098 5.691 C-1.103 4.817 -1.108 3.942 -1.114 3.041 C-1 1 -1 1 0 0 Z " fill="#002A62" transform="translate(446,289)"/>
<path d="M0 0 C5.28 0 10.56 0 16 0 C16 0.33 16 0.66 16 1 C12.04 1 8.08 1 4 1 C4 7.27 4 13.54 4 20 C3.67 20 3.34 20 3 20 C3 14.72 3 9.44 3 4 C2.34 4 1.68 4 1 4 C0.67 2.68 0.34 1.36 0 0 Z " fill="#002D64" transform="translate(247,275)"/>
<path d="M0 0 C4.836 0.99 9.476 1.957 14 4 C10.555 6.296 8.062 6.54 4 7 C4 5.68 4 4.36 4 3 C2.68 2.67 1.36 2.34 0 2 C0 1.34 0 0.68 0 0 Z " fill="#F8FDF1" transform="translate(318,203)"/>
<path d="M0 0 C0.99 1.021 0.99 1.021 2 2.062 C5.495 5.567 9.251 8.772 13 12 C12.01 12.66 11.02 13.32 10 14 C8.348 12.402 6.704 10.796 5.062 9.188 C4.146 8.294 3.229 7.401 2.285 6.48 C0 4 0 4 -1 1 C-0.67 0.67 -0.34 0.34 0 0 Z " fill="#E3E9EF" transform="translate(215,362)"/>
<path d="M0 0 C0 0.99 0 1.98 0 3 C-1.958 3.195 -3.916 3.38 -5.875 3.562 C-6.966 3.667 -8.056 3.771 -9.18 3.879 C-12 4 -12 4 -14 3 C-14 2.34 -14 1.68 -14 1 C-9.328 -0.206 -4.785 -0.094 0 0 Z " fill="#13417A" transform="translate(322,316)"/>
<path d="M0 0 C1.32 0.33 2.64 0.66 4 1 C0.501 5.26 -3.921 7.157 -9 9 C-9.66 9 -10.32 9 -11 9 C-11 8.01 -11 7.02 -11 6 C-9.35 6 -7.7 6 -6 6 C-6 5.34 -6 4.68 -6 4 C-3 2 -3 2 0 2 C0 1.34 0 0.68 0 0 Z " fill="#09356B" transform="translate(333,379)"/>
<path d="M0 0 C0.33 0 0.66 0 1 0 C1.33 2.64 1.66 5.28 2 8 C2.33 8 2.66 8 3 8 C3.082 12.161 2.982 15.947 2 20 C1.01 19.67 0.02 19.34 -1 19 C-0.67 12.73 -0.34 6.46 0 0 Z " fill="#2B5483" transform="translate(319,341)"/>
<path d="M0 0 C1.32 1.65 2.64 3.3 4 5 C-0.95 5 -5.9 5 -11 5 C-10.67 4.34 -10.34 3.68 -10 3 C-7.715 2.586 -7.715 2.586 -4.938 2.375 C-4.018 2.3 -3.099 2.225 -2.152 2.148 C-1.442 2.099 -0.732 2.05 0 2 C0 1.34 0 0.68 0 0 Z " fill="#19447B" transform="translate(341,313)"/>
<path d="M0 0 C2.076 6.229 2.192 11.645 1 18 C0.67 18 0.34 18 0 18 C-0.33 16.35 -0.66 14.7 -1 13 C-1.66 13 -2.32 13 -3 13 C-2.649 12.113 -2.299 11.226 -1.938 10.312 C-0.964 6.874 -1.249 5.381 -2 2 C-1.34 1.34 -0.68 0.68 0 0 Z " fill="#013066" transform="translate(426,287)"/>
<path d="M0 0 C0.33 0 0.66 0 1 0 C1 3.3 1 6.6 1 10 C4.3 10 7.6 10 11 10 C11 11.98 11 13.96 11 16 C10.67 16 10.34 16 10 16 C10 14.35 10 12.7 10 11 C7.03 11 4.06 11 1 11 C1 11.66 1 12.32 1 13 C-0.32 12.67 -1.64 12.34 -3 12 C-3 11.01 -3 10.02 -3 9 C-2.34 9 -1.68 9 -1 9 C-0.67 6.03 -0.34 3.06 0 0 Z " fill="#174478" transform="translate(347,274)"/>
<path d="M0 0 C0.99 0.33 1.98 0.66 3 1 C2.567 1.835 2.567 1.835 2.125 2.688 C0.94 5.028 0.94 5.028 0 7.688 C-1 10 -1 10 -3 11 C-3.99 10.34 -4.98 9.68 -6 9 C-5.67 8.34 -5.34 7.68 -5 7 C-4.34 7 -3.68 7 -3 7 C-2.876 6.031 -2.752 5.061 -2.625 4.062 C-2.419 3.052 -2.213 2.041 -2 1 C-1.34 0.67 -0.68 0.34 0 0 Z " fill="#F2F6F8" transform="translate(145,271)"/>
<path d="M0 0 C1.65 0 3.3 0 5 0 C5 0.66 5 1.32 5 2 C3.68 2 2.36 2 1 2 C1.495 2.619 1.99 3.238 2.5 3.875 C4 6 4 6 4 8 C0.088 6.844 -2.875 5.645 -6 3 C-4.35 3 -2.7 3 -1 3 C-0.67 2.01 -0.34 1.02 0 0 Z " fill="#EFF9E6" transform="translate(361,171)"/>
<path d="M0 0 C0.33 0 0.66 0 1 0 C1 2.64 1 5.28 1 8 C2.98 8 4.96 8 7 8 C7.33 7.34 7.66 6.68 8 6 C8 7.65 8 9.3 8 11 C5.69 11.33 3.38 11.66 1 12 C0.039 9.118 -0.106 7.301 -0.062 4.312 C-0.053 3.504 -0.044 2.696 -0.035 1.863 C-0.024 1.248 -0.012 0.634 0 0 Z " fill="#32568C" transform="translate(413,299)"/>
<path d="M0 0 C0.99 0.33 1.98 0.66 3 1 C4.892 1.222 6.789 1.406 8.688 1.562 C9.681 1.646 10.675 1.73 11.699 1.816 C12.838 1.907 12.838 1.907 14 2 C14 2.33 14 2.66 14 3 C9.71 3 5.42 3 1 3 C1 7.95 1 12.9 1 18 C0.67 18 0.34 18 0 18 C-0.194 15.188 -0.38 12.375 -0.562 9.562 C-0.619 8.76 -0.675 7.958 -0.732 7.131 C-0.862 5.089 -0.935 3.045 -1 1 C-0.67 0.67 -0.34 0.34 0 0 Z " fill="#174676" transform="translate(249,299)"/>
<path d="M0 0 C0.412 0.639 0.825 1.279 1.25 1.938 C2.964 4.388 2.964 4.388 6.688 4.75 C7.781 4.832 8.874 4.915 10 5 C10 5.33 10 5.66 10 6 C7.03 6.66 4.06 7.32 1 8 C0.34 6.35 -0.32 4.7 -1 3 C-2.65 3.66 -4.3 4.32 -6 5 C-6 3.68 -6 2.36 -6 1 C-3 0 -3 0 0 0 Z " fill="#214A7B" transform="translate(148,307)"/>
<path d="M0 0 C3.96 0 7.92 0 12 0 C12 0.66 12 1.32 12 2 C9.475 3.262 7.688 3.099 4.875 3.062 C3.965 3.053 3.055 3.044 2.117 3.035 C1.419 3.024 0.72 3.012 0 3 C0 2.01 0 1.02 0 0 Z " fill="#0C376E" transform="translate(251,276)"/>
<path d="M0 0 C4 1.333 4.838 3.496 7 7 C6.01 7 5.02 7 4 7 C1.997 7.314 -0.004 7.645 -2 8 C-1.34 5.36 -0.68 2.72 0 0 Z " fill="#F0F4F7" transform="translate(192,381)"/>
<path d="M0 0 C2.97 0 5.94 0 9 0 C8.01 0.33 7.02 0.66 6 1 C6.526 1.866 6.526 1.866 7.062 2.75 C8.149 5.358 7.931 6.394 7 9 C6.34 9 5.68 9 5 9 C3.875 4.25 3.875 4.25 5 2 C3.02 2 1.04 2 -1 2 C-0.67 1.34 -0.34 0.68 0 0 Z " fill="#134278" transform="translate(349,318)"/>
<path d="M0 0 C0.66 0 1.32 0 2 0 C2 0.66 2 1.32 2 2 C3.32 2.33 4.64 2.66 6 3 C4.02 5.97 2.04 8.94 0 12 C-0.66 11.01 -1.32 10.02 -2 9 C-1.67 8.01 -1.34 7.02 -1 6 C-0.34 5.67 0.32 5.34 1 5 C1 4.01 1 3.02 1 2 C0.34 1.67 -0.32 1.34 -1 1 C-0.67 0.67 -0.34 0.34 0 0 Z " fill="#F6FCF0" transform="translate(187,218)"/>
<path d="M0 0 C0.99 0 1.98 0 3 0 C4.605 1.969 4.605 1.969 6.188 4.5 C6.717 5.335 7.247 6.171 7.793 7.031 C8.191 7.681 8.59 8.331 9 9 C5.385 9 3.888 8.108 1 6 C1 5.01 1 4.02 1 3 C0.67 2.01 0.34 1.02 0 0 Z " fill="#113E73" transform="translate(206,356)"/>
<path d="M0 0 C2.64 0 5.28 0 8 0 C8.33 0.66 8.66 1.32 9 2 C6.69 2.33 4.38 2.66 2 3 C1.67 6.96 1.34 10.92 1 15 C0.67 15 0.34 15 0 15 C0 10.05 0 5.1 0 0 Z " fill="#30598A" transform="translate(382,318)"/>
<path d="M0 0 C1.98 0.495 1.98 0.495 4 1 C3.01 1 2.02 1 1 1 C2.394 5.435 4.606 7.874 8 11 C7.01 11.33 6.02 11.66 5 12 C0.697 9.352 0.697 9.352 -1 7 C-0.875 3.188 -0.875 3.188 0 0 Z " fill="#E7EDF2" transform="translate(141,307)"/>
<path d="M0 0 C3 1 3 1 5 2 C5 2.33 5 2.66 5 3 C-0.458 3.111 -5.615 2.917 -11 2 C-7.285 -0.477 -4.304 -0.435 0 0 Z " fill="#8AD054" transform="translate(305,154)"/>
<path d="M0 0 C2.31 0.33 4.62 0.66 7 1 C6.67 1.99 6.34 2.98 6 4 C2.851 5.05 0.612 5.101 -2.688 5.062 C-3.681 5.053 -4.675 5.044 -5.699 5.035 C-6.838 5.018 -6.838 5.018 -8 5 C-8 4.67 -8 4.34 -8 4 C-4.535 3.505 -4.535 3.505 -1 3 C-0.67 2.01 -0.34 1.02 0 0 Z " fill="#E2EBF1" transform="translate(291,314)"/>
<path d="M0 0 C0.66 0 1.32 0 2 0 C2 0.99 2 1.98 2 3 C3.65 3 5.3 3 7 3 C7 3.66 7 4.32 7 5 C7.99 5.66 8.98 6.32 10 7 C3.6 7.492 3.6 7.492 0.562 5 C0.047 4.34 -0.469 3.68 -1 3 C-0.67 2.01 -0.34 1.02 0 0 Z " fill="#617AAC" transform="translate(349,306)"/>
<path d="M0 0 C8.25 0 16.5 0 25 0 C25 0.99 25 1.98 25 3 C24.34 3 23.68 3 23 3 C23 2.34 23 1.68 23 1 C15.41 1 7.82 1 0 1 C0 0.67 0 0.34 0 0 Z " fill="#DAE7F1" transform="translate(366,283)"/>
<path d="M0 0 C0.66 0.99 1.32 1.98 2 3 C0.35 4.98 -1.3 6.96 -3 9 C-3.66 8.67 -4.32 8.34 -5 8 C-4.188 4.562 -4.188 4.562 -3 1 C-2.01 0.67 -1.02 0.34 0 0 Z " fill="#0A3A6F" transform="translate(402,390)"/>
<path d="M0 0 C0 3 0 3 -1.625 5.25 C-4 7 -4 7 -7.25 6.75 C-8.158 6.502 -9.065 6.255 -10 6 C-6.876 3.477 -3.619 1.727 0 0 Z " fill="#E4ECF1" transform="translate(336,381)"/>
<path d="M0 0 C0.66 0.33 1.32 0.66 2 1 C-2.625 6.875 -2.625 6.875 -6 8 C-8.188 7.062 -8.188 7.062 -10 6 C-8.381 4.97 -6.755 3.951 -5.125 2.938 C-4.22 2.369 -3.315 1.801 -2.383 1.215 C-1.203 0.613 -1.203 0.613 0 0 Z " fill="#80CE49" transform="translate(247,176)"/>
<path d="M0 0 C0.33 0.99 0.66 1.98 1 3 C0.423 3.248 -0.155 3.495 -0.75 3.75 C-3.142 4.923 -3.142 4.923 -5 7.188 C-5.99 8.085 -5.99 8.085 -7 9 C-8.32 8.67 -9.64 8.34 -11 8 C-7.37 5.36 -3.74 2.72 0 0 Z " fill="#EAF1F5" transform="translate(389,407)"/>
<path d="M0 0 C0.33 0.99 0.66 1.98 1 3 C0 4 0 4 -2.504 4.098 C-4.018 4.08 -4.018 4.08 -5.562 4.062 C-6.574 4.053 -7.586 4.044 -8.629 4.035 C-9.411 4.024 -10.194 4.012 -11 4 C-10.67 3.01 -10.34 2.02 -10 1 C-9.362 1.012 -8.724 1.023 -8.066 1.035 C-7.24 1.044 -6.414 1.053 -5.562 1.062 C-4.327 1.08 -4.327 1.08 -3.066 1.098 C-1.008 1.233 -1.008 1.233 0 0 Z " fill="#15417A" transform="translate(424,315)"/>
<path d="M0 0 C0.33 0.66 0.66 1.32 1 2 C0.01 3.485 0.01 3.485 -1 5 C-0.67 5.66 -0.34 6.32 0 7 C-3.3 6.01 -6.6 5.02 -10 4 C-10 3.67 -10 3.34 -10 3 C-7.69 3 -5.38 3 -3 3 C-2.67 2.34 -2.34 1.68 -2 1 C-1.34 0.67 -0.68 0.34 0 0 Z " fill="#ECF8E1" transform="translate(318,152)"/>
<path d="M0 0 C-0.33 0.33 -0.66 0.66 -1 1 C0.32 1.33 1.64 1.66 3 2 C3 2.66 3 3.32 3 4 C0.212 5.033 -0.868 5.045 -3.75 4.062 C-4.493 3.712 -5.235 3.361 -6 3 C-6 2.01 -6 1.02 -6 0 C-3 -1 -3 -1 0 0 Z " fill="#144276" transform="translate(273,434)"/>
<path d="M0 0 C0.33 0 0.66 0 1 0 C1 2.64 1 5.28 1 8 C-0.98 8 -2.96 8 -5 8 C-4.67 6.68 -4.34 5.36 -4 4 C-2.68 4 -1.36 4 0 4 C0 2.68 0 1.36 0 0 Z " fill="#405F94" transform="translate(419,299)"/>
<path d="M0 0 C1.32 0 2.64 0 4 0 C4 0.66 4 1.32 4 2 C4.99 2.33 5.98 2.66 7 3 C7 3.66 7 4.32 7 5 C4.69 5 2.38 5 0 5 C-0.33 4.01 -0.66 3.02 -1 2 C-0.67 1.34 -0.34 0.68 0 0 Z " fill="#002C65" transform="translate(394,284)"/>
<path d="M0 0 C3.63 0 7.26 0 11 0 C11 2.31 11 4.62 11 7 C9.68 6.34 8.36 5.68 7 5 C7 4.01 7 3.02 7 2 C4.69 1.67 2.38 1.34 0 1 C0 0.67 0 0.34 0 0 Z " fill="#798CB8" transform="translate(323,284)"/>
<path d="M0 0 C3.63 0 7.26 0 11 0 C11 0.66 11 1.32 11 2 C7.37 2.33 3.74 2.66 0 3 C0 2.01 0 1.02 0 0 Z " fill="#114074" transform="translate(432,283)"/>
<path d="M0 0 C1 2 1 2 0.062 5.125 C-0.288 6.074 -0.639 7.023 -1 8 C-1.99 8 -2.98 8 -4 8 C-4 9.32 -4 10.64 -4 12 C-4.99 12 -5.98 12 -7 12 C-5.443 7.329 -2.916 3.913 0 0 Z " fill="#85D04F" transform="translate(194,218)"/>
<path d="M0 0 C-1.177 3.532 -1.956 3.863 -5.062 5.688 C-5.796 6.124 -6.529 6.561 -7.285 7.012 C-7.851 7.338 -8.417 7.664 -9 8 C-9.33 7.01 -9.66 6.02 -10 5 C-4.032 0 -4.032 0 0 0 Z " fill="#7BCE3B" transform="translate(234,216)"/>
<path d="M0 0 C1.32 1.65 2.64 3.3 4 5 C2.623 7.754 0.633 8.515 -2 10 C-2 9.34 -2 8.68 -2 8 C-1.34 8 -0.68 8 0 8 C-0.371 7.423 -0.743 6.845 -1.125 6.25 C-2 4 -2 4 -1.125 1.75 C-0.754 1.173 -0.382 0.595 0 0 Z " fill="#77CD3B" transform="translate(403,211)"/>
<path d="M0 0 C-2.545 2.969 -5.49 4.362 -9 6 C-8.67 4.68 -8.34 3.36 -8 2 C-7.34 2 -6.68 2 -6 2 C-6 1.34 -6 0.68 -6 0 C-3 -1 -3 -1 0 0 Z " fill="#113F72" transform="translate(376,416)"/>
<path d="M0 0 C1 3 1 3 -0.625 6.625 C-2.254 9.33 -2.647 9.88 -5.75 10.938 C-6.493 10.958 -7.235 10.979 -8 11 C-7.59 10.457 -7.18 9.915 -6.758 9.355 C-6.219 8.64 -5.68 7.925 -5.125 7.188 C-4.591 6.48 -4.058 5.772 -3.508 5.043 C-2.292 3.395 -1.136 1.704 0 0 Z " fill="#E6EFF3" transform="translate(404,391)"/>
<path d="M0 0 C0.33 0.66 0.66 1.32 1 2 C2.888 2.685 2.888 2.685 5.062 3.125 C5.796 3.293 6.529 3.46 7.285 3.633 C7.851 3.754 8.417 3.875 9 4 C8.34 4.66 7.68 5.32 7 6 C4.836 5.758 4.836 5.758 2.375 5.125 C1.149 4.819 1.149 4.819 -0.102 4.508 C-1.041 4.256 -1.041 4.256 -2 4 C-2 3.01 -2 2.02 -2 1 C-1.34 0.67 -0.68 0.34 0 0 Z " fill="#E6EBF0" transform="translate(260,392)"/>
<path d="M0 0 C-3.006 3.006 -5.824 2.596 -10 3 C-10 2.01 -10 1.02 -10 0 C-6.305 -0.95 -3.695 -0.95 0 0 Z " fill="#133F71" transform="translate(321,388)"/>
<path d="M0 0 C2.5 2.062 2.5 2.062 5 5 C5.312 8.812 5.312 8.812 5 12 C4.34 12 3.68 12 3 12 C1.119 8.826 0.906 6.649 1 3 C0.67 2.01 0.34 1.02 0 0 Z " fill="#254A78" transform="translate(165,275)"/>
<path d="M0 0 C1.32 0.33 2.64 0.66 4 1 C1.192 3.964 -1.183 6.445 -5 8 C-5 7.01 -5 6.02 -5 5 C-4.34 5 -3.68 5 -3 5 C-3 4.34 -3 3.68 -3 3 C-2.01 2.67 -1.02 2.34 0 2 C0 1.34 0 0.68 0 0 Z " fill="#7CCE41" transform="translate(219,224)"/>
<path d="M0 0 C0 1.32 0 2.64 0 4 C-0.66 4 -1.32 4 -2 4 C-2 4.99 -2 5.98 -2 7 C-6 7 -6 7 -8 6 C-7.048 4.994 -6.088 3.995 -5.125 3 C-4.591 2.443 -4.058 1.886 -3.508 1.312 C-2 0 -2 0 0 0 Z " fill="#7BCC3F" transform="translate(215,199)"/>
<path d="M0 0 C3.3 0 6.6 0 10 0 C10 1.65 10 3.3 10 5 C9.67 4.01 9.34 3.02 9 2 C4.545 2.495 4.545 2.495 0 3 C0 2.01 0 1.02 0 0 Z " fill="#3C5F94" transform="translate(330,302)"/>
<path d="M0 0 C0 3.106 -0.539 4.353 -2 7 C-1.01 7 -0.02 7 1 7 C1.33 6.01 1.66 5.02 2 4 C2.33 5.32 2.66 6.64 3 8 C0 9 0 9 -2.188 8.062 C-2.786 7.712 -3.384 7.361 -4 7 C-2.926 4.085 -2.222 2.222 0 0 Z " fill="#1B426F" transform="translate(147,274)"/>
<path d="M0 0 C1.625 -0.054 3.25 -0.093 4.875 -0.125 C5.78 -0.148 6.685 -0.171 7.617 -0.195 C10 0 10 0 12 2 C9.03 2.66 6.06 3.32 3 4 C2.67 3.01 2.34 2.02 2 1 C1.34 0.67 0.68 0.34 0 0 Z " fill="#F0F7FB" transform="translate(252,279)"/>
<path d="M0 0 C1.454 0.031 1.454 0.031 2.938 0.062 C2.938 1.382 2.938 2.702 2.938 4.062 C3.598 4.062 4.257 4.062 4.938 4.062 C4.938 4.722 4.938 5.382 4.938 6.062 C1.162 4.972 -1.533 4.154 -4.062 1.062 C-3.062 0.062 -3.062 0.062 0 0 Z " fill="#F0F9E7" transform="translate(369.0625,177.9375)"/>
<path d="M0 0 C-3.285 2.19 -6.207 2.998 -10 4 C-9.67 2.68 -9.34 1.36 -9 0 C-5.675 -1.108 -3.378 -0.845 0 0 Z " fill="#0C396E" transform="translate(333,437)"/>
<path d="M0 0 C1.32 0 2.64 0 4 0 C4 0.99 4 1.98 4 3 C5.32 3.66 6.64 4.32 8 5 C3.545 5.495 3.545 5.495 -1 6 C-1 5.01 -1 4.02 -1 3 C-0.34 2.67 0.32 2.34 1 2 C0.67 1.34 0.34 0.68 0 0 Z " fill="#002C66" transform="translate(310,284)"/>
<path d="M0 0 C0.99 0 1.98 0 3 0 C3.99 2.31 4.98 4.62 6 7 C5.01 7.33 4.02 7.66 3 8 C0 2.25 0 2.25 0 0 Z " fill="#113E74" transform="translate(199,344)"/>
<path d="M0 0 C1.98 0 3.96 0 6 0 C6 0.66 6 1.32 6 2 C5.361 2.124 4.721 2.248 4.062 2.375 C3.382 2.581 2.701 2.788 2 3 C1.67 3.66 1.34 4.32 1 5 C2.65 5 4.3 5 6 5 C6 5.33 6 5.66 6 6 C4.02 6 2.04 6 0 6 C0 4.02 0 2.04 0 0 Z " fill="#032D63" transform="translate(366,273)"/>
<path d="M0 0 C-1.454 1.006 -2.914 2.004 -4.375 3 C-5.593 3.835 -5.593 3.835 -6.836 4.688 C-9 6 -9 6 -11 6 C-10.67 5.01 -10.34 4.02 -10 3 C-9.01 3 -8.02 3 -7 3 C-7 2.34 -7 1.68 -7 1 C-3.375 -1.125 -3.375 -1.125 0 0 Z " fill="#F0FBE5" transform="translate(242,180)"/>
<path d="M0 0 C-2.853 2.325 -5.541 3.751 -9 5 C-9.33 4.01 -9.66 3.02 -10 2 C-3.375 -1.125 -3.375 -1.125 0 0 Z " fill="#F7FDF1" transform="translate(262,168)"/>
<path d="M0 0 C-0.66 1.32 -1.32 2.64 -2 4 C-4.31 4 -6.62 4 -9 4 C-3.783 0 -3.783 0 0 0 Z " fill="#89D256" transform="translate(271,165)"/>
<path d="M0 0 C2.125 0.938 2.125 0.938 4 2 C2 4 2 4 0.055 4.195 C-1.964 4.13 -3.982 4.065 -6 4 C-4.036 2.494 -2.217 1.109 0 0 Z " fill="#1F4A7A" transform="translate(340,392)"/>
<path d="M0 0 C0.66 0 1.32 0 2 0 C2.125 6.75 2.125 6.75 1 9 C0.34 9 -0.32 9 -1 9 C-1.33 9.66 -1.66 10.32 -2 11 C-1.856 10.299 -1.711 9.598 -1.562 8.875 C-0.985 5.924 -0.483 2.967 0 0 Z " fill="#0C3A72" transform="translate(320,328)"/>
<path d="M0 0 C0.33 0 0.66 0 1 0 C1 1.98 1 3.96 1 6 C2.65 6 4.3 6 6 6 C6 6.33 6 6.66 6 7 C4.35 7 2.7 7 1 7 C0.67 7.99 0.34 8.98 0 10 C-0.66 9.67 -1.32 9.34 -2 9 C-1.34 6.03 -0.68 3.06 0 0 Z " fill="#5F78AB" transform="translate(334,284)"/>
<path d="M0 0 C3.3 0 6.6 0 10 0 C9.01 0.495 9.01 0.495 8 1 C8 1.66 8 2.32 8 3 C6.35 3 4.7 3 3 3 C3 2.34 3 1.68 3 1 C2.01 0.67 1.02 0.34 0 0 Z " fill="#0F3E74" transform="translate(311,283)"/>
<path d="M0 0 C0.99 0 1.98 0 3 0 C3.66 1.65 4.32 3.3 5 5 C4.01 4.67 3.02 4.34 2 4 C2 4.66 2 5.32 2 6 C1.34 6 0.68 6 0 6 C0 4.02 0 2.04 0 0 Z " fill="#003068" transform="translate(201,274)"/>
<path d="M0 0 C1.65 0 3.3 0 5 0 C5 0.66 5 1.32 5 2 C5.99 2.33 6.98 2.66 8 3 C5.69 3.33 3.38 3.66 1 4 C0.67 2.68 0.34 1.36 0 0 Z " fill="#81CE45" transform="translate(274,198)"/>
<path d="M0 0 C1.746 2.619 2.387 4.038 3 7 C0.525 6.01 0.525 6.01 -2 5 C-2 3.68 -2 2.36 -2 1 C-1.34 0.67 -0.68 0.34 0 0 Z " fill="#E0E7EE" transform="translate(179,353)"/>
<path d="M0 0 C1.98 0.99 1.98 0.99 4 2 C3.67 5.63 3.34 9.26 3 13 C2.67 13 2.34 13 2 13 C1.939 12.313 1.879 11.626 1.816 10.918 C1.733 10.017 1.649 9.116 1.562 8.188 C1.481 7.294 1.4 6.401 1.316 5.48 C1.065 2.873 1.065 2.873 0 0 Z " fill="#C5D4DE" transform="translate(168,296)"/>
<path d="M0 0 C0.66 0 1.32 0 2 0 C2 0.66 2 1.32 2 2 C2.66 2 3.32 2 4 2 C4 3.65 4 5.3 4 7 C3.01 7 2.02 7 1 7 C0.67 4.69 0.34 2.38 0 0 Z " fill="#002F6A" transform="translate(267,282)"/>
<path d="M0 0 C3.242 0.35 4.615 0.562 6.812 3.062 C7.204 3.702 7.596 4.341 8 5 C7.34 5.66 6.68 6.32 6 7 C1.125 2.25 1.125 2.25 0 0 Z " fill="#E1EAF0" transform="translate(162,272)"/>
<path d="M0 0 C3.375 0.547 5.082 1.055 8 3 C7.67 3.99 7.34 4.98 7 6 C5.831 5.192 4.664 4.378 3.5 3.562 C2.85 3.11 2.201 2.658 1.531 2.191 C1.026 1.798 0.521 1.405 0 1 C0 0.67 0 0.34 0 0 Z " fill="#F0FAE6" transform="translate(374,184)"/>
<path d="M0 0 C2.468 1.152 4.048 2.048 6 4 C5.01 4 4.02 4 3 4 C2.67 4.66 2.34 5.32 2 6 C1.67 5.01 1.34 4.02 1 3 C0.34 2.67 -0.32 2.34 -1 2 C-0.67 1.34 -0.34 0.68 0 0 Z " fill="#EDF2F5" transform="translate(223,411)"/>
<path d="M0 0 C0.186 0.897 0.186 0.897 0.375 1.812 C0.955 4.262 0.955 4.262 3 7 C2.01 7 1.02 7 0 7 C-1.688 5 -1.688 5 -3 3 C-2.34 3 -1.68 3 -1 3 C-0.67 2.01 -0.34 1.02 0 0 Z " fill="#103F71" transform="translate(212,395)"/>
<path d="M0 0 C3.459 1.249 6.147 2.675 9 5 C5.936 5.255 4.368 5.219 1.688 3.625 C1.131 3.089 0.574 2.553 0 2 C0 1.34 0 0.68 0 0 Z " fill="#133E71" transform="translate(237,385)"/>
<path d="M0 0 C1.32 0.33 2.64 0.66 4 1 C2.71 2.376 1.373 3.708 0 5 C-0.66 5 -1.32 5 -2 5 C-2.33 4.01 -2.66 3.02 -3 2 C-2.01 2 -1.02 2 0 2 C0 1.34 0 0.68 0 0 Z " fill="#113F74" transform="translate(333,379)"/>
<path d="M0 0 C0 3 0 3 -2 6 C-5.625 6.688 -5.625 6.688 -9 7 C-8.01 6.34 -7.02 5.68 -6 5 C-3.969 3.369 -1.991 1.681 0 0 Z " fill="#D5E3EA" transform="translate(213,310)"/>
<path d="M0 0 C1.32 0.66 2.64 1.32 4 2 C3.041 2.433 3.041 2.433 2.062 2.875 C-0.152 3.828 -0.152 3.828 -1 6 C-1 5.34 -1 4.68 -1 4 C-1.66 3.67 -2.32 3.34 -3 3 C-2.01 2.67 -1.02 2.34 0 2 C0 1.34 0 0.68 0 0 Z " fill="#0D3D70" transform="translate(164,289)"/>
<path d="M0 0 C5.538 0.492 5.538 0.492 7.875 3.062 C8.432 4.022 8.432 4.022 9 5 C4.985 5 3.18 3.332 0 1 C0 0.67 0 0.34 0 0 Z " fill="#F0F4F7" transform="translate(206,274)"/>
<path d="M0 0 C2.64 0 5.28 0 8 0 C8 0.66 8 1.32 8 2 C8.66 2 9.32 2 10 2 C10 2.66 10 3.32 10 4 C6.7 3.01 3.4 2.02 0 1 C0 0.67 0 0.34 0 0 Z " fill="#E2F4D2" transform="translate(327,162)"/>
<path d="M0 0 C0.99 0.33 1.98 0.66 3 1 C2.01 4.3 1.02 7.6 0 11 C-1.35 6.95 -0.621 4.208 0 0 Z " fill="#0D3B6C" transform="translate(355,349)"/>
<path d="M0 0 C1.32 0.66 2.64 1.32 4 2 C4 2.99 4 3.98 4 5 C1.525 4.01 1.525 4.01 -1 3 C-0.67 2.01 -0.34 1.02 0 0 Z " fill="#00326A" transform="translate(208,279)"/>
<path d="M0 0 C2.343 0.256 4.678 0.593 7 1 C7.33 1.66 7.66 2.32 8 3 C5.03 2.67 2.06 2.34 -1 2 C-0.67 1.34 -0.34 0.68 0 0 Z " fill="#D0DBE5" transform="translate(153,278)"/>
<path d="M0 0 C0.99 0 1.98 0 3 0 C3.33 0.66 3.66 1.32 4 2 C5.65 2 7.3 2 9 2 C8.67 2.99 8.34 3.98 8 5 C6.35 4.67 4.7 4.34 3 4 C2.67 3.01 2.34 2.02 2 1 C1.34 0.67 0.68 0.34 0 0 Z " fill="#F0FAE7" transform="translate(335,163)"/>
</svg>
